<svg width="137" height="72" viewBox="0 0 137 72" fill="none" xmlns="http://www.w3.org/2000/svg">
<g clip-path="url(#clip0_22_95)">
<path d="M53.1143 38.4547L55.5294 31.7345L57.9165 38.4547H53.1143Z" fill="#344F4F"/>
<path d="M66.6813 27.665V50.0752H44.3018V27.665H53.9716L47.0619 46.1831H50.3536L52.0973 41.2922H58.9137L60.6668 46.1831H63.9864L57.0674 27.665H66.6813Z" fill="#344F4F"/>
<path d="M11.1901 8.03632L13.5772 14.7659H8.76562L11.1901 8.03632Z" fill="#344F4F"/>
<path d="M14.5835 17.594L16.3086 22.4102H6.04199L7.76708 17.594H14.5835Z" fill="#344F4F"/>
<path d="M22.3889 0V22.4102H19.6287L12.7284 3.94815H9.64185L2.75082 22.4102H0V0H22.3889Z" fill="#344F4F"/>
<path d="M120.803 3.94812V6.77623H127.237V22.4848H130.454V6.77623H136.888V3.94812H120.812H120.803ZM107.301 3.94812H104.083V15.2792C104.083 16.7166 103.757 17.8553 103.095 18.6767C102.433 19.498 101.519 19.9087 100.354 19.9087C99.188 19.9087 98.2741 19.498 97.6121 18.6767C96.95 17.8553 96.6236 16.7166 96.6236 15.2792V3.94812H93.4066V15.6432C93.4066 17.8553 94.022 19.5914 95.2622 20.8608C96.4931 22.1208 98.1995 22.7555 100.354 22.7555C102.508 22.7555 104.214 22.1208 105.445 20.8608C106.676 19.6007 107.301 17.8646 107.301 15.6432V3.94812ZM72.6216 7.03757C73.3769 7.38291 74.011 7.8496 74.5425 8.45629C75.0647 9.05364 75.4657 9.77234 75.7547 10.5937C76.0345 11.4151 76.1837 12.2924 76.1837 13.2165C76.1837 14.1405 76.0438 15.0179 75.7547 15.8392C75.475 16.6606 75.0647 17.3793 74.5425 17.9766C74.0203 18.574 73.3769 19.05 72.6216 19.3954C71.8663 19.7407 71.0271 19.9087 70.1039 19.9087C69.1808 19.9087 68.3415 19.7407 67.5862 19.3954C66.8309 19.05 66.1968 18.5833 65.6653 17.9766C65.1431 17.3793 64.7421 16.6606 64.4531 15.8392C64.1733 15.0179 64.0241 14.1405 64.0241 13.2165C64.0241 12.2924 64.164 11.4151 64.4531 10.5937C64.7328 9.77234 65.1431 9.05364 65.6653 8.45629C66.1875 7.85893 66.8309 7.38291 67.5862 7.03757C68.3415 6.69222 69.1808 6.52422 70.1039 6.52422C71.0271 6.52422 71.8663 6.69222 72.6216 7.03757ZM73.8711 22.0275C75.0088 21.5514 75.9879 20.8888 76.8084 20.0487C77.6197 19.2087 78.2538 18.2006 78.7107 17.0339C79.1676 15.8672 79.3914 14.5978 79.3914 13.2258C79.3914 11.8537 79.1676 10.5844 78.7107 9.41766C78.2538 8.25095 77.6197 7.24291 76.8084 6.40288C75.9972 5.56285 75.0181 4.90016 73.8711 4.42414C72.7335 3.94812 71.4747 3.70544 70.1039 3.70544C68.7332 3.70544 67.4743 3.94812 66.3367 4.42414C65.1991 4.90949 64.22 5.56285 63.3994 6.40288C62.5881 7.24291 61.954 8.25095 61.4971 9.41766C61.0402 10.5844 60.8164 11.8537 60.8164 13.2258C60.8164 14.5978 61.0402 15.8672 61.4971 17.0339C61.954 18.2006 62.5881 19.2087 63.3994 20.0487C64.2106 20.8888 65.1897 21.5514 66.3367 22.0275C67.4743 22.5035 68.7332 22.7462 70.1039 22.7462C71.4747 22.7462 72.7335 22.5035 73.8711 22.0275ZM32.5156 3.94812V6.77623H38.9497V22.4848H42.1668V6.77623H48.6009V3.94812H32.525H32.5156Z" fill="#344F4F"/>
<path d="M19.6285 22.4102H16.3089L16.3369 22.4942H19.6565L19.6285 22.4102ZM2.73198 22.4942H6.02364L6.05161 22.4102H2.75063L2.72266 22.4942H2.73198Z" fill="#344F4F"/>
<path d="M129.177 43.3549V38.1747H136.487V35.3466H129.177V30.4838H137V27.6557H125.96V46.1924H137V43.3643H129.177V43.3549ZM103.245 34.2826C103.534 33.4706 103.944 32.7612 104.475 32.1545C105.007 31.5572 105.65 31.0811 106.415 30.7358C107.18 30.3905 108.028 30.2224 108.979 30.2224C109.986 30.2224 110.919 30.4651 111.758 30.9411C112.597 31.4265 113.297 32.0799 113.838 32.9199L116.048 30.7825C115.236 29.6531 114.229 28.8037 112.998 28.2344C111.767 27.665 110.462 27.385 109.073 27.385C107.683 27.385 106.406 27.6184 105.24 28.0944C104.074 28.5704 103.077 29.2237 102.247 30.0544C101.417 30.8851 100.764 31.8932 100.289 33.0692C99.8131 34.2453 99.5799 35.524 99.5799 36.9147C99.5799 38.3054 99.8131 39.5935 100.289 40.7602C100.764 41.9362 101.408 42.9443 102.247 43.775C103.077 44.6056 104.074 45.259 105.24 45.735C106.406 46.211 107.683 46.4444 109.073 46.4444C110.462 46.4444 111.767 46.1644 112.998 45.595C114.22 45.0257 115.236 44.1763 116.048 43.0469L113.838 40.9095C113.287 41.7495 112.597 42.4122 111.758 42.8883C110.919 43.3736 109.996 43.6069 108.979 43.6069C108.038 43.6069 107.18 43.4389 106.415 43.0936C105.65 42.7482 105.007 42.2816 104.475 41.6749C103.944 41.0775 103.534 40.3682 103.245 39.5468C102.956 38.7348 102.806 37.8481 102.806 36.9054C102.806 35.9627 102.956 35.0853 103.245 34.2639V34.2826ZM89.1735 27.637H85.9844V40.3588L77.62 27.637H74.6641V46.1737H77.8531V33.6572L86.2175 46.1737H89.1735V27.6464V27.637Z" fill="#344F4F"/>
<path d="M57.068 27.6464H53.9814V27.6744H57.0773V27.6464H57.068Z" fill="#344F4F"/>
<path d="M32.693 31.1838C33.2339 31.6598 33.5043 32.3039 33.5043 33.1252C33.5043 33.9466 33.2339 34.6186 32.693 35.0853C32.1522 35.552 31.4528 35.776 30.5949 35.776H27.1448V30.4745H30.5949C31.4528 30.4745 32.1522 30.7078 32.693 31.1838ZM33.1966 38.2494C34.2782 37.8761 35.1454 37.232 35.8075 36.3267C36.4696 35.4213 36.7866 34.3573 36.768 33.1252C36.7866 31.5292 36.2458 30.2131 35.1641 29.1864C34.0731 28.1597 32.6837 27.637 30.9866 27.637H23.937V46.1737H27.1541V38.6041H30.0354L33.9425 46.1737H37.4114L33.1966 38.2401V38.2494ZM5.94948 34.9266V30.4931H13.773V27.637H2.73242V46.1737H5.94948V37.7547H13.2601V34.9266H5.94948Z" fill="#344F4F"/>
<path d="M135.312 67.2212C135.471 67.3332 135.583 67.5105 135.639 67.7439H133.774C133.83 67.5292 133.932 67.3612 134.1 67.2399C134.259 67.1185 134.473 67.0532 134.725 67.0532C134.958 67.0532 135.163 67.1092 135.312 67.2212ZM135.816 68.6679C135.695 68.8639 135.546 69.0133 135.359 69.1253C135.173 69.2373 134.967 69.2933 134.744 69.2933C134.473 69.2933 134.249 69.2186 134.082 69.0693C133.914 68.9199 133.802 68.7239 133.755 68.4906H136.665C136.665 68.4252 136.665 68.3786 136.665 68.3319V68.1546C136.665 67.8652 136.618 67.5945 136.515 67.3519C136.413 67.1092 136.282 66.9038 136.105 66.7358C135.928 66.5678 135.723 66.4278 135.48 66.3345C135.238 66.2412 134.977 66.1945 134.697 66.1945C134.417 66.1945 134.147 66.2412 133.904 66.3438C133.662 66.4372 133.457 66.5772 133.28 66.7452C133.102 66.9225 132.963 67.1279 132.869 67.3799C132.776 67.6319 132.72 67.9025 132.72 68.1919C132.72 68.4812 132.767 68.7519 132.869 68.9946C132.972 69.2373 133.102 69.4426 133.28 69.6199C133.457 69.7973 133.662 69.928 133.904 70.0213C134.147 70.1146 134.417 70.1613 134.706 70.1613C135.051 70.1613 135.368 70.0866 135.667 69.9466C135.965 69.7973 136.217 69.5826 136.413 69.2839L135.807 68.6493L135.816 68.6679ZM127.722 67.4079C127.899 67.2025 128.151 67.0905 128.459 67.0905C128.682 67.0905 128.878 67.1465 129.046 67.2679C129.214 67.3799 129.354 67.5385 129.466 67.7252L130.156 67.0905C129.96 66.8012 129.708 66.5772 129.41 66.4372C129.111 66.2878 128.785 66.2132 128.449 66.2132C128.16 66.2132 127.899 66.2598 127.647 66.3625C127.396 66.4652 127.191 66.5958 127.023 66.7638C126.855 66.9318 126.715 67.1465 126.612 67.3892C126.51 67.6319 126.463 67.9025 126.463 68.1919C126.463 68.4812 126.51 68.7519 126.612 69.0039C126.715 69.2466 126.846 69.4613 127.023 69.6293C127.2 69.8066 127.405 69.9373 127.647 70.0306C127.89 70.124 128.16 70.1706 128.449 70.1706C128.794 70.1706 129.111 70.096 129.41 69.956C129.708 69.8066 129.96 69.5919 130.156 69.2933L129.466 68.6586C129.354 68.8453 129.214 68.9946 129.046 69.1159C128.878 69.2279 128.682 69.2933 128.459 69.2933C128.142 69.2933 127.899 69.1906 127.722 68.9759C127.545 68.7706 127.452 68.4999 127.452 68.1919C127.452 67.8839 127.545 67.6132 127.722 67.4079ZM123.778 70.096V67.8932C123.778 67.3612 123.647 66.9412 123.395 66.6518C123.144 66.3532 122.761 66.2132 122.267 66.2132C122.006 66.2132 121.773 66.2598 121.577 66.3438C121.381 66.4278 121.213 66.5585 121.073 66.7452V66.2972H120.085V70.1053H121.073V67.6412C121.157 67.4639 121.279 67.3332 121.428 67.2399C121.577 67.1465 121.745 67.0999 121.941 67.0999C122.202 67.0999 122.416 67.1839 122.565 67.3519C122.715 67.5199 122.789 67.7812 122.789 68.1172V70.096H123.778ZM114.574 67.4079C114.761 67.1932 115.003 67.0905 115.32 67.0905C115.507 67.0905 115.684 67.1372 115.842 67.2212C116.001 67.3052 116.131 67.4452 116.243 67.6505V68.7426C116.141 68.9386 116.01 69.0879 115.842 69.1719C115.684 69.2559 115.507 69.3026 115.32 69.3026C115.003 69.3026 114.761 69.1999 114.574 68.9853C114.388 68.7706 114.304 68.5092 114.304 68.2012C114.304 67.8932 114.397 67.6319 114.574 67.4172V67.4079ZM113.446 68.9853C113.53 69.2279 113.66 69.4333 113.819 69.6106C113.977 69.788 114.173 69.928 114.406 70.0306C114.63 70.1333 114.891 70.18 115.162 70.18C115.404 70.18 115.609 70.1426 115.786 70.068C115.954 69.9933 116.113 69.8906 116.253 69.7506V70.096H117.241V66.2878H116.253V66.6425C116.113 66.5025 115.963 66.3998 115.786 66.3158C115.618 66.2412 115.413 66.2038 115.162 66.2038C114.882 66.2038 114.63 66.2598 114.406 66.3532C114.173 66.4558 113.987 66.5958 113.819 66.7732C113.66 66.9505 113.539 67.1559 113.446 67.3985C113.362 67.6412 113.315 67.9026 113.315 68.1826C113.315 68.4626 113.362 68.7239 113.446 68.9666V68.9853ZM108.364 70.0866H109.352V67.5852C109.455 67.4172 109.585 67.2865 109.753 67.2025C109.921 67.1185 110.107 67.0812 110.331 67.0812C110.434 67.0812 110.527 67.0812 110.62 67.1092C110.714 67.1279 110.798 67.1559 110.872 67.1932V66.2785C110.798 66.2598 110.723 66.2412 110.63 66.2225C110.546 66.2038 110.443 66.1945 110.35 66.1945C110.145 66.1945 109.94 66.2318 109.753 66.3158C109.567 66.3998 109.399 66.5305 109.268 66.7172V66.2785H108.354V70.0866H108.364ZM103.161 66.4652V65.0371H105.678V64.1224H102.135V70.0773H103.17V67.3705H105.52V66.4558H103.17L103.161 66.4652ZM92.3624 67.3985C92.5489 67.1839 92.7913 67.0812 93.1084 67.0812C93.2949 67.0812 93.4721 67.1279 93.6306 67.2119C93.7891 67.2959 93.9196 67.4359 94.0315 67.6412V68.7332C93.929 68.9293 93.7984 69.0786 93.6306 69.1626C93.4721 69.2466 93.2949 69.2933 93.1084 69.2933C92.7913 69.2933 92.5489 69.1906 92.3624 68.9759C92.1759 68.7613 92.092 68.4999 92.092 68.1919C92.092 67.8839 92.1852 67.6225 92.3624 67.4079V67.3985ZM91.2341 68.9759C91.318 69.2186 91.4486 69.4239 91.6071 69.6013C91.7656 69.7786 91.9614 69.9186 92.1946 70.0213C92.4277 70.124 92.6795 70.1706 92.9499 70.1706C93.1923 70.1706 93.3975 70.1333 93.5746 70.0586C93.7425 69.984 93.901 69.8813 94.0409 69.7413V70.0866H95.0293V66.2785H94.0409V66.6332C93.901 66.4932 93.7518 66.3905 93.5746 66.3065C93.4068 66.2318 93.2016 66.1945 92.9499 66.1945C92.6701 66.1945 92.4184 66.2505 92.1946 66.3438C91.9614 66.4465 91.7749 66.5865 91.6071 66.7638C91.4486 66.9412 91.3273 67.1465 91.2341 67.3892C91.1502 67.6319 91.1036 67.8932 91.1036 68.1732C91.1036 68.4532 91.1502 68.7146 91.2341 68.9573V68.9759ZM87.3363 70.0773H88.3248V63.7024H87.3363V70.0773ZM79.0373 67.2025C79.1958 67.3145 79.2984 67.4919 79.3636 67.7252H77.4987C77.5546 67.5105 77.6572 67.3425 77.825 67.2212C77.9836 67.0999 78.198 67.0345 78.4498 67.0345C78.6829 67.0345 78.8881 67.0905 79.0373 67.2025ZM79.5408 68.6493C79.4196 68.8453 79.2704 68.9946 79.0839 69.1066C78.8974 69.2186 78.6922 69.2746 78.4685 69.2746C78.198 69.2746 77.9742 69.1999 77.8064 69.0506C77.6385 68.9013 77.5266 68.7052 77.48 68.4719H80.3894C80.3894 68.4066 80.3894 68.3599 80.3894 68.3132V68.1359C80.3894 67.8465 80.3427 67.5759 80.2402 67.3332C80.1376 67.0905 80.007 66.8852 79.8299 66.7172C79.6527 66.5492 79.4476 66.4092 79.2051 66.3158C78.9627 66.2225 78.7016 66.1758 78.4218 66.1758C78.1421 66.1758 77.8717 66.2225 77.6292 66.3252C77.3868 66.4278 77.1816 66.5585 77.0045 66.7265C76.8273 66.8945 76.6874 67.1092 76.5942 67.3612C76.4916 67.6132 76.445 67.8839 76.445 68.1732C76.445 68.4626 76.4916 68.7333 76.5942 68.9759C76.6967 69.2186 76.8273 69.4239 77.0045 69.6013C77.1816 69.7786 77.3868 69.9093 77.6292 70.0026C77.8717 70.096 78.1421 70.1426 78.4312 70.1426C78.7762 70.1426 79.0932 70.068 79.3916 69.928C79.69 69.7786 79.9418 69.5639 80.1376 69.2653L79.5315 68.6306L79.5408 68.6493ZM70.9806 67.3985C71.1671 67.1839 71.4189 67.0812 71.7266 67.0812C71.9224 67.0812 72.1089 67.1279 72.2768 67.2212C72.4446 67.3145 72.5845 67.4545 72.6777 67.6412V68.7332C72.5752 68.9199 72.4446 69.0599 72.2768 69.1533C72.1089 69.2466 71.9224 69.2933 71.7266 69.2933C71.4096 69.2933 71.1671 69.1906 70.9806 68.9759C70.7941 68.7613 70.7009 68.4999 70.7009 68.1919C70.7009 67.8839 70.7941 67.6225 70.9806 67.4079V67.3985ZM69.8523 68.9759C69.9456 69.2186 70.0668 69.4239 70.2346 69.6013C70.3932 69.7786 70.5983 69.9186 70.8221 70.0213C71.0552 70.124 71.307 70.1706 71.5867 70.1706C71.8105 70.1706 72.0064 70.1333 72.1835 70.068C72.3607 70.0026 72.5285 69.8906 72.6871 69.7506V70.0866H73.6755V63.7117H72.6871V66.6145C72.5285 66.4745 72.37 66.3625 72.1835 66.2972C72.0064 66.2318 71.8012 66.1945 71.5867 66.1945C71.307 66.1945 71.0459 66.2505 70.8221 66.3438C70.589 66.4465 70.3932 66.5865 70.2346 66.7638C70.0761 66.9412 69.9456 67.1465 69.8523 67.3892C69.7591 67.6319 69.7125 67.8932 69.7125 68.1732C69.7125 68.4532 69.7591 68.7146 69.8523 68.9573V68.9759ZM61.4973 67.2025C61.6558 67.3145 61.7584 67.4919 61.8237 67.7252H59.9587C60.0147 67.5105 60.1172 67.3425 60.2851 67.2212C60.4436 67.0999 60.6581 67.0345 60.9098 67.0345C61.143 67.0345 61.3481 67.0905 61.4973 67.2025ZM62.0008 68.6493C61.8796 68.8453 61.7304 68.9946 61.5439 69.1066C61.3574 69.2186 61.1523 69.2746 60.9285 69.2746C60.6581 69.2746 60.4343 69.1999 60.2664 69.0506C60.0986 68.9013 59.9867 68.7052 59.9401 68.4719H62.8494C62.8494 68.4066 62.8494 68.3599 62.8494 68.3132V68.1359C62.8494 67.8465 62.8028 67.5759 62.7002 67.3332C62.5976 67.0905 62.4671 66.8852 62.2899 66.7172C62.1128 66.5492 61.9076 66.4092 61.6652 66.3158C61.4227 66.2225 61.1616 66.1758 60.8819 66.1758C60.6021 66.1758 60.3317 66.2225 60.0893 66.3252C59.8468 66.4278 59.6417 66.5585 59.4645 66.7265C59.2873 66.8945 59.1475 67.1092 59.0542 67.3612C58.961 67.6132 58.905 67.8839 58.905 68.1732C58.905 68.4626 58.9516 68.7333 59.0542 68.9759C59.1568 69.2186 59.2873 69.4239 59.4645 69.6013C59.6417 69.7786 59.8468 69.9093 60.0893 70.0026C60.3317 70.096 60.6021 70.1426 60.8912 70.1426C61.2362 70.1426 61.5533 70.068 61.8517 69.928C62.15 69.7786 62.4018 69.5639 62.5976 69.2653L61.9915 68.6306L62.0008 68.6493ZM56.1356 66.2692H55.1471V68.7426C55.0632 68.9106 54.9606 69.0413 54.8208 69.1346C54.6809 69.2279 54.5317 69.2746 54.3452 69.2746C54.0934 69.2746 53.9069 69.1906 53.767 69.0226C53.6272 68.8546 53.5526 68.5932 53.5526 68.2572V66.2785H52.5641V68.4812C52.5641 69.0133 52.6854 69.4333 52.9371 69.732C53.1796 70.0306 53.5433 70.1706 54.0281 70.1706C54.2799 70.1706 54.5037 70.124 54.6902 70.04C54.8767 69.956 55.0352 69.8253 55.1658 69.648V70.0866H56.1542V66.2785L56.1356 66.2692ZM47.0066 67.3892C47.1931 67.1745 47.4448 67.0719 47.7526 67.0719C47.9484 67.0719 48.1349 67.1185 48.3027 67.2119C48.4706 67.3052 48.6104 67.4452 48.7037 67.6319V68.7239C48.6011 68.9106 48.4706 69.0506 48.3027 69.1439C48.1349 69.2373 47.9484 69.2839 47.7526 69.2839C47.4355 69.2839 47.1931 69.1813 47.0066 68.9666C46.8201 68.7519 46.7268 68.4906 46.7268 68.1826C46.7268 67.8746 46.8201 67.6132 47.0066 67.3985V67.3892ZM45.8783 68.9666C45.9715 69.2093 46.0927 69.4146 46.2606 69.5919C46.4191 69.7693 46.6243 69.9093 46.848 70.012C47.0812 70.1146 47.3329 70.1613 47.6127 70.1613C47.8365 70.1613 48.0323 70.124 48.2095 70.0586C48.3866 69.9933 48.5545 69.8813 48.713 69.7413V71.9814H49.7014V66.2692H48.713V66.6052C48.5545 66.4652 48.396 66.3532 48.2095 66.2878C48.0323 66.2225 47.8272 66.1852 47.6127 66.1852C47.3329 66.1852 47.0718 66.2412 46.848 66.3345C46.6149 66.4372 46.4191 66.5772 46.2606 66.7545C46.1021 66.9318 45.9715 67.1372 45.8783 67.3799C45.785 67.6225 45.7384 67.8839 45.7384 68.1639C45.7384 68.4439 45.785 68.7053 45.8783 68.9479V68.9666ZM41.9432 70.068H42.9316V66.2598H41.9432V70.068ZM42.0085 64.2904C41.8966 64.4118 41.8313 64.5518 41.8313 64.7104C41.8313 64.8784 41.8873 65.0278 42.0085 65.1398C42.1204 65.2518 42.2696 65.3171 42.4374 65.3171C42.6053 65.3171 42.7451 65.2611 42.8664 65.1398C42.9876 65.0278 43.0435 64.8784 43.0435 64.7104C43.0435 64.5518 42.9876 64.4118 42.8664 64.2904C42.7451 64.1691 42.6053 64.1131 42.4374 64.1131C42.2696 64.1131 42.1204 64.1691 42.0085 64.2904ZM37.4393 67.1372H38.9593V66.2692H37.4393V64.2811H36.4509V68.7706C36.4509 69.2466 36.5814 69.6013 36.8332 69.8253C37.085 70.0493 37.4114 70.1613 37.8216 70.1613C38.12 70.1613 38.3905 70.0866 38.6422 69.9466C38.894 69.8066 39.0991 69.5359 39.267 69.1346L38.521 68.7052C38.4464 68.8919 38.3625 69.0319 38.2786 69.1346C38.1946 69.2279 38.0827 69.2746 37.9335 69.2746C37.803 69.2746 37.6818 69.2279 37.5885 69.1346C37.4953 69.0413 37.4486 68.8919 37.4486 68.6772V67.1372H37.4393ZM32.5252 69.2466C32.4133 69.3026 32.2734 69.3213 32.1242 69.3213C31.919 69.3213 31.7232 69.2746 31.5367 69.1813C31.3502 69.0879 31.1917 68.9573 31.0332 68.7986L30.483 69.4893C30.6229 69.6573 30.828 69.816 31.1078 69.956C31.3875 70.096 31.7232 70.1613 32.1242 70.1613C32.5718 70.1613 32.9448 70.0586 33.2338 69.844C33.5229 69.6293 33.6721 69.3306 33.6721 68.9386C33.6721 68.6306 33.5789 68.3879 33.383 68.2012C33.1872 68.0146 32.9075 67.8932 32.5438 67.8092C32.3387 67.7625 32.1708 67.7252 32.0496 67.6879C31.9284 67.6505 31.8351 67.6132 31.7698 67.5852C31.7046 67.5479 31.6673 67.5199 31.6486 67.4732C31.63 67.4359 31.6206 67.3892 31.6206 67.3519C31.6206 67.2399 31.6766 67.1652 31.7978 67.1092C31.9097 67.0625 32.0403 67.0345 32.1895 67.0345C32.3946 67.0345 32.5625 67.0812 32.693 67.1652C32.8235 67.2492 32.9448 67.3612 33.0567 67.4919L33.6535 66.8012C33.5136 66.6425 33.3178 66.5025 33.0753 66.3718C32.8329 66.2505 32.5345 66.1852 32.1895 66.1852C31.7325 66.1852 31.3596 66.2972 31.0705 66.5118C30.7814 66.7358 30.6322 67.0159 30.6322 67.3612C30.6322 67.6599 30.7255 67.9026 30.912 68.0986C31.0985 68.2946 31.4062 68.4346 31.8351 68.5372C32.1708 68.6119 32.3946 68.6866 32.5158 68.7426C32.6371 68.8079 32.693 68.8826 32.693 68.9946C32.693 69.1066 32.6371 69.1906 32.5158 69.2373L32.5252 69.2466ZM26.7624 70.068H27.7509V66.2598H26.7624V70.068ZM26.8277 64.2904C26.7158 64.4118 26.6505 64.5518 26.6505 64.7104C26.6505 64.8784 26.7065 65.0278 26.8277 65.1398C26.9396 65.2518 27.0888 65.3171 27.2566 65.3171C27.4245 65.3171 27.5644 65.2611 27.6856 65.1398C27.8068 65.0278 27.8628 64.8784 27.8628 64.7104C27.8628 64.5518 27.8068 64.4118 27.6856 64.2904C27.5644 64.1691 27.4245 64.1131 27.2566 64.1131C27.0888 64.1131 26.9396 64.1691 26.8277 64.2904ZM21.4753 70.068H22.4637V67.5665C22.5663 67.3985 22.6968 67.2679 22.8647 67.1839C23.0325 67.0999 23.219 67.0625 23.4428 67.0625C23.5454 67.0625 23.6386 67.0625 23.7319 67.0905C23.8251 67.1092 23.909 67.1372 23.9836 67.1745V66.2598C23.909 66.2412 23.8344 66.2225 23.7412 66.2038C23.6479 66.1852 23.5547 66.1758 23.4614 66.1758C23.2563 66.1758 23.0512 66.2132 22.8647 66.2972C22.6782 66.3812 22.5103 66.5118 22.3798 66.6985V66.2598H21.4659V70.068H21.4753ZM18.6219 66.2598H17.6334V68.7332C17.5495 68.9013 17.447 69.0319 17.3071 69.1253C17.1765 69.2186 17.018 69.2653 16.8315 69.2653C16.5797 69.2653 16.3932 69.1813 16.2441 69.0133C16.1042 68.8453 16.0296 68.5839 16.0296 68.2479V66.2692H15.0412V68.4719C15.0412 69.0039 15.1624 69.4239 15.4048 69.7226C15.6473 70.0213 16.0109 70.1613 16.4958 70.1613C16.7476 70.1613 16.9714 70.1146 17.1486 70.0306C17.3351 69.9466 17.4936 69.816 17.6241 69.6386V70.0773H18.6126V66.2692L18.6219 66.2598ZM9.53952 68.9479C9.35302 68.7426 9.25978 68.4719 9.25978 68.1639C9.25978 67.8559 9.35302 67.5852 9.53952 67.3799C9.72602 67.1745 9.96846 67.0625 10.2762 67.0625C10.5839 67.0625 10.8263 67.1652 11.0035 67.3799C11.19 67.5852 11.2833 67.8559 11.2833 68.1639C11.2833 68.4719 11.19 68.7426 11.0035 68.9479C10.817 69.1533 10.5746 69.2653 10.2762 69.2653C9.97779 69.2653 9.72602 69.1626 9.53952 68.9479ZM9.47425 66.3252C9.2318 66.4185 9.01733 66.5585 8.84016 66.7265C8.66299 66.8945 8.52312 67.1092 8.42054 67.3519C8.31797 67.5945 8.27135 67.8652 8.27135 68.1546C8.27135 68.4439 8.31797 68.7146 8.42054 68.9666C8.52312 69.2093 8.66299 69.4239 8.84016 69.5919C9.01733 69.7693 9.2318 69.9 9.47425 69.9933C9.71669 70.0866 9.98711 70.1333 10.2762 70.1333C10.5652 70.1333 10.8263 70.0866 11.0781 69.9933C11.3206 69.9 11.535 69.76 11.7122 69.5919C11.8894 69.4146 12.0292 69.2093 12.1318 68.9666C12.2344 68.7239 12.281 68.4532 12.281 68.1546C12.281 67.8559 12.2344 67.5945 12.1318 67.3519C12.0292 67.1092 11.8894 66.8945 11.7122 66.7265C11.535 66.5492 11.3206 66.4185 11.0781 66.3252C10.8357 66.2318 10.5652 66.1758 10.2762 66.1758C9.98711 66.1758 9.72602 66.2225 9.47425 66.3252ZM4.00991 67.1279H5.52986V66.2598H4.00991V64.2717H3.02148V68.7612C3.02148 69.2373 3.15203 69.592 3.4038 69.816C3.65557 70.04 3.98194 70.152 4.39223 70.152C4.69062 70.152 4.96104 70.0773 5.21281 69.9373C5.46458 69.7973 5.66973 69.5266 5.83757 69.1253L5.09159 68.6959C5.01699 68.8826 4.93307 69.0226 4.84915 69.1253C4.76522 69.2279 4.65332 69.2653 4.50413 69.2653C4.37358 69.2653 4.25236 69.2186 4.15911 69.1253C4.06586 69.0319 4.00991 68.8826 4.00991 68.6679V67.1279Z" fill="#344F4F"/>
<path d="M134.967 57.9621H136.487V57.0941H134.967V55.106H133.979V59.5955C133.979 60.0715 134.1 60.4262 134.361 60.6502C134.613 60.8742 134.939 60.9862 135.35 60.9862C135.648 60.9862 135.918 60.9116 136.17 60.7716C136.422 60.6316 136.627 60.3609 136.795 59.9595L136.049 59.5302C135.974 59.7169 135.891 59.8569 135.807 59.9595C135.723 60.0529 135.611 60.1089 135.462 60.1089C135.331 60.1089 135.21 60.0622 135.117 59.9689C135.023 59.8755 134.977 59.7262 134.977 59.5115V57.9715L134.967 57.9621ZM131.536 60.9022V58.6995C131.536 58.1675 131.405 57.7475 131.154 57.4488C130.902 57.1501 130.519 57.0101 130.025 57.0101C129.764 57.0101 129.531 57.0568 129.335 57.1408C129.139 57.2248 128.972 57.3554 128.832 57.5421V57.0941H127.843V60.9022H128.832V58.4382C128.916 58.2608 129.037 58.1301 129.186 58.0368C129.335 57.9435 129.503 57.8968 129.699 57.8968C129.96 57.8968 130.174 57.9808 130.324 58.1488C130.473 58.3168 130.547 58.5782 130.547 58.9142V60.8929H131.536V60.9022ZM124.216 58.0275C124.374 58.1395 124.486 58.3168 124.542 58.5502H122.677C122.733 58.3355 122.836 58.1675 123.004 58.0461C123.162 57.9248 123.377 57.8595 123.628 57.8595C123.862 57.8595 124.067 57.9155 124.216 58.0275ZM124.719 59.4742C124.598 59.6702 124.449 59.8195 124.262 59.9315C124.076 60.0435 123.871 60.0995 123.647 60.0995C123.377 60.0995 123.153 60.0249 122.985 59.8755C122.817 59.7262 122.705 59.5302 122.659 59.2968H125.568C125.568 59.2315 125.568 59.1848 125.568 59.1382V58.9608C125.568 58.6715 125.521 58.4008 125.419 58.1581C125.316 57.9155 125.186 57.7101 125.008 57.5421C124.831 57.3741 124.626 57.2341 124.384 57.1408C124.141 57.0474 123.88 57.0008 123.6 57.0008C123.321 57.0008 123.05 57.0474 122.808 57.1501C122.565 57.2434 122.36 57.3834 122.183 57.5515C122.006 57.7288 121.866 57.9341 121.773 58.1861C121.67 58.4382 121.624 58.7088 121.624 58.9982C121.624 59.2875 121.67 59.5582 121.773 59.8009C121.875 60.0435 122.006 60.2489 122.183 60.4262C122.36 60.6036 122.565 60.7342 122.808 60.8276C123.05 60.9209 123.321 60.9769 123.61 60.9769C123.955 60.9769 124.272 60.9022 124.57 60.7622C124.869 60.6129 125.12 60.3982 125.316 60.0995L124.71 59.4649L124.719 59.4742ZM116.821 60.9022V58.5502C116.821 58.5502 116.821 58.4755 116.821 58.4382C116.905 58.2608 117.017 58.1301 117.148 58.0368C117.288 57.9435 117.446 57.8968 117.623 57.8968C117.856 57.8968 118.043 57.9715 118.183 58.1301C118.323 58.2888 118.397 58.5315 118.397 58.8582V60.9022H119.386V58.6622C119.386 58.1395 119.264 57.7288 119.022 57.4488C118.78 57.1594 118.416 57.0194 117.922 57.0194C117.642 57.0194 117.399 57.0661 117.166 57.1688C116.943 57.2714 116.747 57.4208 116.579 57.6261C116.458 57.4301 116.299 57.2808 116.094 57.1781C115.889 57.0754 115.656 57.0194 115.367 57.0194C115.115 57.0194 114.891 57.0661 114.705 57.1501C114.518 57.2341 114.36 57.3648 114.229 57.5421V57.1034H113.241V60.9116H114.229V58.4288C114.313 58.2608 114.415 58.1301 114.555 58.0368C114.686 57.9528 114.854 57.9061 115.031 57.9061C115.264 57.9061 115.451 57.9808 115.59 58.1395C115.73 58.2981 115.805 58.5408 115.805 58.8675V60.9116H116.793L116.821 60.9022ZM109.632 58.0275C109.79 58.1395 109.902 58.3168 109.958 58.5502H108.093C108.149 58.3355 108.252 58.1675 108.42 58.0461C108.578 57.9248 108.793 57.8595 109.044 57.8595C109.278 57.8595 109.483 57.9155 109.632 58.0275ZM110.135 59.4742C110.014 59.6702 109.865 59.8195 109.678 59.9315C109.492 60.0435 109.287 60.0995 109.063 60.0995C108.793 60.0995 108.569 60.0249 108.401 59.8755C108.233 59.7262 108.121 59.5302 108.075 59.2968H110.984C110.984 59.2315 110.984 59.1848 110.984 59.1382V58.9608C110.984 58.6715 110.937 58.4008 110.835 58.1581C110.732 57.9155 110.602 57.7101 110.424 57.5421C110.247 57.3741 110.042 57.2341 109.8 57.1408C109.557 57.0474 109.296 57.0008 109.016 57.0008C108.737 57.0008 108.466 57.0474 108.224 57.1501C107.981 57.2434 107.776 57.3834 107.599 57.5515C107.422 57.7288 107.282 57.9341 107.189 58.1861C107.086 58.4382 107.04 58.7088 107.04 58.9982C107.04 59.2875 107.086 59.5582 107.189 59.8009C107.291 60.0435 107.422 60.2489 107.599 60.4262C107.776 60.6036 107.981 60.7342 108.224 60.8276C108.466 60.9209 108.737 60.9769 109.026 60.9769C109.371 60.9769 109.688 60.9022 109.986 60.7622C110.285 60.6129 110.536 60.3982 110.732 60.0995L110.126 59.4649L110.135 59.4742ZM103.543 58.2235C103.729 58.4382 103.823 58.6995 103.823 59.0075C103.823 59.3155 103.729 59.5769 103.543 59.7915C103.356 60.0062 103.105 60.1089 102.797 60.1089C102.601 60.1089 102.414 60.0622 102.247 59.9689C102.079 59.8755 101.939 59.7355 101.846 59.5489V58.4568C101.948 58.2701 102.079 58.1301 102.247 58.0368C102.414 57.9435 102.601 57.8968 102.797 57.8968C103.114 57.8968 103.356 57.9995 103.543 58.2141V58.2235ZM101.836 60.5569C101.995 60.6969 102.153 60.8089 102.34 60.8742C102.517 60.9396 102.722 60.9769 102.937 60.9769C103.216 60.9769 103.478 60.9209 103.701 60.8276C103.934 60.7249 104.13 60.5849 104.289 60.4076C104.447 60.2302 104.578 60.0249 104.671 59.7822C104.764 59.5395 104.811 59.2782 104.811 58.9982C104.811 58.7182 104.764 58.4568 104.671 58.2141C104.578 57.9715 104.457 57.7661 104.289 57.5888C104.13 57.4114 103.925 57.2714 103.701 57.1688C103.468 57.0661 103.216 57.0194 102.937 57.0194C102.713 57.0194 102.517 57.0568 102.34 57.1221C102.163 57.1874 101.995 57.2994 101.836 57.4394V57.1034H100.848V62.8157H101.836V60.5756V60.5569ZM97.3418 58.2141C97.5283 58.4288 97.6215 58.6902 97.6215 58.9982C97.6215 59.3062 97.5283 59.5675 97.3418 59.7822C97.1553 59.9969 96.9035 60.0995 96.5958 60.0995C96.4 60.0995 96.2135 60.0529 96.0456 59.9595C95.8778 59.8662 95.7379 59.7262 95.6447 59.5395V58.4475C95.7472 58.2608 95.8778 58.1208 96.0456 58.0275C96.2135 57.9341 96.4 57.8875 96.5958 57.8875C96.9128 57.8875 97.1553 57.9901 97.3418 58.2048V58.2141ZM95.6353 60.5476C95.7939 60.6876 95.9524 60.7996 96.1389 60.8649C96.316 60.9302 96.5212 60.9676 96.7357 60.9676C97.0154 60.9676 97.2765 60.9116 97.5003 60.8182C97.7334 60.7156 97.9292 60.5756 98.0878 60.3982C98.2463 60.2209 98.3768 60.0155 98.4701 59.7729C98.5633 59.5302 98.61 59.2688 98.61 58.9888C98.61 58.7088 98.5633 58.4475 98.4701 58.2048C98.3768 57.9621 98.2556 57.7568 98.0878 57.5795C97.9292 57.4021 97.7241 57.2621 97.5003 57.1594C97.2672 57.0568 97.0154 57.0101 96.7357 57.0101C96.5119 57.0101 96.316 57.0474 96.1389 57.1128C95.9617 57.1781 95.7939 57.2901 95.6353 57.4301V57.0941H94.6469V62.8063H95.6353V60.5662V60.5476ZM89.6768 59.7729C89.4903 59.5675 89.397 59.2969 89.397 58.9888C89.397 58.6808 89.4903 58.4102 89.6768 58.2048C89.8633 57.9995 90.1057 57.8875 90.4135 57.8875C90.7212 57.8875 90.9636 57.9901 91.1408 58.2048C91.3273 58.4102 91.4205 58.6808 91.4205 58.9888C91.4205 59.2969 91.3273 59.5675 91.1408 59.7729C90.9543 59.9782 90.7118 60.0902 90.4135 60.0902C90.1151 60.0902 89.8633 59.9875 89.6768 59.7729ZM89.6115 57.1501C89.3691 57.2434 89.1546 57.3834 88.9774 57.5515C88.8003 57.7288 88.6604 57.9341 88.5578 58.1768C88.4552 58.4195 88.4086 58.6902 88.4086 58.9795C88.4086 59.2688 88.4552 59.5395 88.5578 59.7822C88.6604 60.0249 88.8003 60.2396 88.9774 60.4076C89.1546 60.5849 89.3691 60.7156 89.6115 60.8089C89.854 60.9022 90.1244 60.9582 90.4135 60.9582C90.7025 60.9582 90.9636 60.9116 91.2154 60.8089C91.4578 60.7156 91.6723 60.5756 91.8495 60.4076C92.0266 60.2302 92.1665 60.0249 92.2691 59.7822C92.3717 59.5395 92.4183 59.2688 92.4183 58.9795C92.4183 58.6902 92.3717 58.4195 92.2691 58.1768C92.1665 57.9341 92.0266 57.7195 91.8495 57.5515C91.6723 57.3741 91.4578 57.2434 91.2154 57.1501C90.9729 57.0568 90.7025 57.0008 90.4135 57.0008C90.1244 57.0008 89.8633 57.0474 89.6115 57.1501ZM85.0983 60.8929H86.0867V54.518H85.0983V60.8929ZM81.4337 58.0181C81.5922 58.1301 81.7041 58.3075 81.76 58.5408H79.8951C79.951 58.3261 80.0536 58.1581 80.2214 58.0368C80.38 57.9155 80.5944 57.8501 80.8462 57.8501C81.0793 57.8501 81.2845 57.9061 81.4337 58.0181ZM81.9372 59.4649C81.816 59.6609 81.6668 59.8102 81.4803 59.9222C81.2938 60.0342 81.0886 60.0902 80.8649 60.0902C80.5944 60.0902 80.3706 60.0155 80.2028 59.8662C80.035 59.7169 79.923 59.5209 79.8764 59.2875H82.7858C82.7858 59.2222 82.7858 59.1755 82.7858 59.1288V58.9515C82.7858 58.6622 82.7391 58.3915 82.6366 58.1488C82.534 57.9061 82.4034 57.7008 82.2263 57.5328C82.0491 57.3648 81.844 57.2248 81.6015 57.1314C81.3591 57.0381 81.098 56.9914 80.8182 56.9914C80.5385 56.9914 80.2681 57.0381 80.0256 57.1408C79.7832 57.2341 79.578 57.3741 79.4009 57.5421C79.2237 57.7195 79.0838 57.9248 78.9906 58.1768C78.888 58.4288 78.8414 58.6995 78.8414 58.9888C78.8414 59.2782 78.888 59.5489 78.9906 59.7915C79.0931 60.0342 79.2237 60.2396 79.4009 60.4169C79.578 60.5942 79.7832 60.7249 80.0256 60.8182C80.2681 60.9116 80.5385 60.9676 80.8276 60.9676C81.1726 60.9676 81.4896 60.8929 81.788 60.7529C82.0864 60.6036 82.3382 60.3889 82.534 60.0902L81.9279 59.4555L81.9372 59.4649ZM75.3912 60.8929L76.9857 57.0848H75.9787L74.9249 59.7729L73.8619 57.0848H72.7896L74.3841 60.8929H75.3819H75.3912ZM67.8847 56.4781L67.922 56.5154L70.1134 55.6007L69.5632 54.7793L67.8941 56.4781H67.8847ZM69.5818 58.0088C69.7404 58.1208 69.8523 58.2981 69.9082 58.5315H68.0433C68.0992 58.3168 68.2018 58.1488 68.3696 58.0275C68.5281 57.9061 68.7426 57.8408 68.9944 57.8408C69.2275 57.8408 69.4326 57.8968 69.5818 58.0088ZM70.0854 59.4555C69.9642 59.6515 69.815 59.8009 69.6285 59.9129C69.442 60.0249 69.2368 60.0809 69.013 60.0809C68.7426 60.0809 68.5188 60.0062 68.351 59.8569C68.1831 59.7075 68.0712 59.5115 68.0246 59.2782H70.9339C70.9339 59.2128 70.9339 59.1662 70.9339 59.1195V58.9422C70.9339 58.6528 70.8873 58.3822 70.7847 58.1395C70.6822 57.8968 70.5516 57.6915 70.3745 57.5235C70.1973 57.3554 69.9921 57.2154 69.7497 57.1221C69.5072 57.0288 69.2461 56.9821 68.9664 56.9821C68.6867 56.9821 68.4162 57.0288 68.1738 57.1314C67.9314 57.2248 67.7262 57.3648 67.549 57.5328C67.3719 57.7101 67.232 57.9155 67.1387 58.1675C67.0362 58.4195 66.9895 58.6902 66.9895 58.9795C66.9895 59.2688 67.0362 59.5395 67.1387 59.7822C67.2413 60.0249 67.3719 60.2302 67.549 60.4076C67.7262 60.5849 67.9314 60.7156 68.1738 60.8089C68.4162 60.9022 68.6867 60.9582 68.9757 60.9582C69.3207 60.9582 69.6378 60.8836 69.9362 60.7436C70.2346 60.5942 70.4864 60.3796 70.6822 60.0809L70.0761 59.4462L70.0854 59.4555ZM61.9728 58.2048C62.1593 57.9901 62.4111 57.8875 62.7188 57.8875C62.9146 57.8875 63.1011 57.9341 63.2689 58.0275C63.4368 58.1208 63.5767 58.2608 63.6699 58.4475V59.5395C63.5673 59.7262 63.4368 59.8662 63.2689 59.9595C63.1011 60.0529 62.9146 60.0995 62.7188 60.0995C62.4017 60.0995 62.1593 59.9969 61.9728 59.7822C61.7863 59.5675 61.6931 59.3062 61.6931 58.9982C61.6931 58.6902 61.7863 58.4288 61.9728 58.2141V58.2048ZM60.8445 59.7822C60.9377 60.0249 61.059 60.2302 61.2268 60.4076C61.3853 60.5849 61.5905 60.7249 61.8143 60.8276C62.0474 60.9302 62.2992 60.9769 62.5789 60.9769C62.8027 60.9769 62.9985 60.9396 63.1757 60.8742C63.3529 60.8089 63.5207 60.6969 63.6792 60.5569V60.8929H64.6677V54.518H63.6792V57.4208C63.5207 57.2808 63.3622 57.1688 63.1757 57.1034C62.9985 57.0381 62.7934 57.0008 62.5789 57.0008C62.2992 57.0008 62.0381 57.0568 61.8143 57.1501C61.5812 57.2528 61.3853 57.3928 61.2268 57.5701C61.0683 57.7475 60.9377 57.9528 60.8445 58.1955C60.7512 58.4381 60.7046 58.6995 60.7046 58.9795C60.7046 59.2595 60.7512 59.5209 60.8445 59.7635V59.7822ZM53.2355 58.0088C53.394 58.1208 53.5059 58.2981 53.5618 58.5315H51.6969C51.7528 58.3168 51.8554 58.1488 52.0232 58.0275C52.1818 57.9061 52.3962 57.8408 52.648 57.8408C52.8811 57.8408 53.0863 57.8968 53.2355 58.0088ZM53.739 59.4555C53.6178 59.6515 53.4686 59.8009 53.2821 59.9129C53.0956 60.0249 52.8904 60.0809 52.6666 60.0809C52.3962 60.0809 52.1724 60.0062 52.0046 59.8569C51.8367 59.7075 51.7248 59.5115 51.6782 59.2782H54.5876C54.5876 59.2128 54.5876 59.1662 54.5876 59.1195V58.9422C54.5876 58.6528 54.5409 58.3822 54.4384 58.1395C54.3358 57.8968 54.2052 57.6915 54.0281 57.5235C53.8509 57.3554 53.6457 57.2154 53.4033 57.1221C53.1609 57.0288 52.8998 56.9821 52.62 56.9821C52.3403 56.9821 52.0699 57.0288 51.8274 57.1314C51.585 57.2248 51.3798 57.3648 51.2027 57.5328C51.0255 57.7101 50.8856 57.9155 50.7924 58.1675C50.6898 58.4195 50.6432 58.6902 50.6432 58.9795C50.6432 59.2688 50.6898 59.5395 50.7924 59.7822C50.8949 60.0249 51.0255 60.2302 51.2027 60.4076C51.3798 60.5849 51.585 60.7156 51.8274 60.8089C52.0699 60.9022 52.3403 60.9582 52.6293 60.9582C52.9744 60.9582 53.2914 60.8836 53.5898 60.7436C53.8882 60.5942 54.14 60.3796 54.3358 60.0809L53.7297 59.4462L53.739 59.4555ZM45.5518 58.2048C45.7383 57.9901 45.9901 57.8875 46.2978 57.8875C46.4936 57.8875 46.6801 57.9341 46.848 58.0275C47.0158 58.1208 47.1557 58.2608 47.2489 58.4475V59.5395C47.1464 59.7262 47.0158 59.8662 46.848 59.9595C46.6801 60.0529 46.4936 60.0995 46.2978 60.0995C45.9808 60.0995 45.7383 59.9969 45.5518 59.7822C45.3653 59.5675 45.2721 59.3062 45.2721 58.9982C45.2721 58.6902 45.3653 58.4288 45.5518 58.2141V58.2048ZM44.4235 59.7822C44.5168 60.0249 44.638 60.2302 44.8058 60.4076C44.9644 60.5849 45.1695 60.7249 45.3933 60.8276C45.6264 60.9302 45.8782 60.9769 46.1579 60.9769C46.3817 60.9769 46.5775 60.9396 46.7547 60.8742C46.9319 60.8089 47.0997 60.6969 47.2583 60.5569V60.8929H48.2467V54.518H47.2583V57.4208C47.0997 57.2808 46.9412 57.1688 46.7547 57.1034C46.5775 57.0381 46.3724 57.0008 46.1579 57.0008C45.8782 57.0008 45.6171 57.0568 45.3933 57.1501C45.1602 57.2528 44.9644 57.3928 44.8058 57.5701C44.6473 57.7475 44.5168 57.9528 44.4235 58.1955C44.3303 58.4381 44.2836 58.6995 44.2836 58.9795C44.2836 59.2595 44.3303 59.5209 44.4235 59.7635V59.7822ZM36.8984 58.0088C37.0569 58.1208 37.1688 58.2981 37.2248 58.5315H35.3598C35.4158 58.3168 35.5183 58.1488 35.6862 58.0275C35.8447 57.9061 36.0592 57.8408 36.3109 57.8408C36.5441 57.8408 36.7492 57.8968 36.8984 58.0088ZM37.4019 59.4555C37.2807 59.6515 37.1315 59.8009 36.945 59.9129C36.7585 60.0249 36.5534 60.0809 36.3296 60.0809C36.0592 60.0809 35.8354 60.0062 35.6675 59.8569C35.4997 59.7075 35.3878 59.5115 35.3412 59.2782H38.2505C38.2505 59.2128 38.2505 59.1662 38.2505 59.1195V58.9422C38.2505 58.6528 38.2039 58.3822 38.1013 58.1395C37.9987 57.8968 37.8682 57.6915 37.691 57.5235C37.5138 57.3554 37.3087 57.2154 37.0662 57.1221C36.8238 57.0288 36.5627 56.9821 36.283 56.9821C36.0032 56.9821 35.7328 57.0288 35.4904 57.1314C35.2479 57.2248 35.0428 57.3648 34.8656 57.5328C34.6884 57.7101 34.5486 57.9155 34.4553 58.1675C34.3527 58.4195 34.3061 58.6902 34.3061 58.9795C34.3061 59.2688 34.3527 59.5395 34.4553 59.7822C34.5579 60.0249 34.6884 60.2302 34.8656 60.4076C35.0428 60.5849 35.2479 60.7156 35.4904 60.8089C35.7328 60.9022 36.0032 60.9582 36.2923 60.9582C36.6373 60.9582 36.9544 60.8836 37.2527 60.7436C37.5511 60.5942 37.8029 60.3796 37.9987 60.0809L37.3926 59.4462L37.4019 59.4555ZM29.7649 58.1955C29.9421 57.9901 30.1939 57.8781 30.5016 57.8781C30.7254 57.8781 30.9212 57.9341 31.0891 58.0555C31.2569 58.1675 31.3968 58.3261 31.5087 58.5128L32.1987 57.8781C32.0029 57.5888 31.7511 57.3648 31.4527 57.2154C31.1543 57.0661 30.828 57.0008 30.4923 57.0008C30.2032 57.0008 29.9421 57.0474 29.6903 57.1501C29.4479 57.2434 29.2334 57.3834 29.0656 57.5515C28.8884 57.7288 28.7579 57.9341 28.6553 58.1768C28.5527 58.4195 28.5061 58.6902 28.5061 58.9795C28.5061 59.2688 28.5527 59.5395 28.6553 59.7822C28.7579 60.0249 28.8884 60.2396 29.0656 60.4076C29.2427 60.5849 29.4479 60.7156 29.6903 60.8089C29.9328 60.9022 30.2032 60.9582 30.4923 60.9582C30.8373 60.9582 31.1543 60.8836 31.4527 60.7436C31.7511 60.5942 32.0029 60.3796 32.1987 60.0809L31.5087 59.4462C31.3968 59.6329 31.2569 59.7822 31.0891 59.9035C30.9212 60.0155 30.7254 60.0809 30.5016 60.0809C30.1845 60.0809 29.9421 59.9782 29.7649 59.7635C29.5878 59.5582 29.4945 59.2875 29.4945 58.9795C29.4945 58.6715 29.5878 58.4008 29.7649 58.1955ZM26.2681 60.8836V58.6808C26.2681 58.1488 26.1376 57.7288 25.8858 57.4301C25.634 57.1314 25.2517 56.9914 24.7575 56.9914C24.4964 56.9914 24.2633 57.0381 24.0675 57.1221C23.8717 57.2061 23.7038 57.3368 23.5639 57.5235V57.0754H22.5755V60.8836H23.5639V58.4195C23.6479 58.2421 23.7691 58.1115 23.9183 58.0181C24.0675 57.9248 24.2353 57.8781 24.4311 57.8781C24.6922 57.8781 24.9067 57.9621 25.0559 58.1301C25.2051 58.2981 25.2797 58.5595 25.2797 58.8955V60.8742H26.2681V60.8836ZM18.9482 58.0088C19.1067 58.1208 19.2186 58.2981 19.2745 58.5315H17.4096C17.4655 58.3168 17.5681 58.1488 17.7359 58.0275C17.8945 57.9061 18.1089 57.8408 18.3607 57.8408C18.5938 57.8408 18.799 57.8968 18.9482 58.0088ZM19.4517 59.4555C19.3305 59.6515 19.1813 59.8009 18.9948 59.9129C18.8083 60.0249 18.6031 60.0809 18.3793 60.0809C18.1089 60.0809 17.8851 60.0062 17.7173 59.8569C17.5494 59.7075 17.4375 59.5115 17.3909 59.2782H20.3003C20.3003 59.2128 20.3003 59.1662 20.3003 59.1195V58.9422C20.3003 58.6528 20.2536 58.3822 20.1511 58.1395C20.0485 57.8968 19.9179 57.6915 19.7408 57.5235C19.5636 57.3554 19.3584 57.2154 19.116 57.1221C18.8736 57.0288 18.6125 56.9821 18.3327 56.9821C18.053 56.9821 17.7826 57.0288 17.5401 57.1314C17.2977 57.2248 17.0925 57.3648 16.9154 57.5328C16.7382 57.7101 16.5983 57.9155 16.5051 58.1675C16.4025 58.4195 16.3559 58.6902 16.3559 58.9795C16.3559 59.2688 16.4025 59.5395 16.5051 59.7822C16.6076 60.0249 16.7382 60.2302 16.9154 60.4076C17.0925 60.5849 17.2977 60.7156 17.5401 60.8089C17.7826 60.9022 18.053 60.9582 18.342 60.9582C18.6871 60.9582 19.0041 60.8836 19.3025 60.7436C19.6009 60.5942 19.8527 60.3796 20.0485 60.0809L19.4424 59.4462L19.4517 59.4555ZM11.3857 58.2048C11.5722 57.9901 11.8147 57.8875 12.1317 57.8875C12.3182 57.8875 12.4954 57.9341 12.6539 58.0181C12.8124 58.1021 12.943 58.2421 13.0549 58.4475V59.5395C12.9523 59.7355 12.8218 59.8849 12.6539 59.9689C12.4954 60.0529 12.3182 60.0995 12.1317 60.0995C11.8147 60.0995 11.5722 59.9969 11.3857 59.7822C11.1992 59.5675 11.1153 59.3062 11.1153 58.9982C11.1153 58.6902 11.2086 58.4288 11.3857 58.2141V58.2048ZM10.2574 59.7822C10.3414 60.0249 10.4719 60.2302 10.6304 60.4076C10.789 60.5849 10.9848 60.7249 11.2179 60.8276C11.4417 60.9302 11.7028 60.9769 11.9732 60.9769C12.2157 60.9769 12.4208 60.9396 12.598 60.8649C12.7658 60.7902 12.9243 60.6876 13.0642 60.5476V60.9769C13.0642 61.3036 12.971 61.5649 12.7938 61.7329C12.6073 61.9103 12.3648 61.9943 12.0665 61.9943C11.8054 61.9943 11.5909 61.9383 11.4324 61.8169C11.2738 61.6956 11.1247 61.5369 10.9941 61.3316L10.2574 61.8823C10.416 62.1623 10.6584 62.3956 10.9755 62.5823C11.2925 62.769 11.6748 62.8717 12.1224 62.8717C12.7005 62.8717 13.1668 62.6943 13.5304 62.3583C13.8848 62.0129 14.0713 61.5463 14.0713 60.9582V57.0848H13.0829V57.4394C12.943 57.2994 12.7938 57.1968 12.6166 57.1128C12.4488 57.0381 12.2436 57.0008 11.9919 57.0008C11.7121 57.0008 11.4603 57.0568 11.2365 57.1501C11.0034 57.2528 10.8169 57.3928 10.6491 57.5701C10.4906 57.7475 10.3693 57.9528 10.2761 58.1955C10.1922 58.4381 10.1455 58.6995 10.1455 58.9795C10.1455 59.2595 10.1922 59.5209 10.2761 59.7635L10.2574 59.7822ZM5.48314 56.2354L6.24778 58.3915H4.69986L5.47382 56.2354H5.48314ZM2.7603 60.8742H3.82333L4.38282 59.3062H6.57415L7.13363 60.8742H8.19666L5.96803 54.9194H4.9796L2.75098 60.8742H2.7603Z" fill="#344F4F"/>
</g>
<defs>
<clipPath id="clip0_22_95">
<rect width="137" height="72" fill="white"/>
</clipPath>
</defs>
</svg>
