<svg width="239" height="35" viewBox="0 0 239 35" fill="none" xmlns="http://www.w3.org/2000/svg">
<path d="M202.842 17.4247C202.993 17.4223 203.146 17.3673 203.299 17.3385C203.15 17.304 203.008 17.2428 202.853 17.2402C202.048 17.2398 201.236 17.2372 200.428 17.2371C200.226 17.2377 200.025 17.2198 199.825 17.2098C200.038 17.1691 200.254 17.0967 200.466 17.0954C201.33 17.0918 202.191 17.1225 203.052 17.1112C203.567 17.1051 204.084 17.0411 204.598 17.0062L203.257 16.9267C203.137 16.9165 203.019 16.9061 202.896 16.8961C202.613 16.8812 202.328 16.8691 202.045 16.8542C202.342 16.7947 202.626 16.7124 202.935 16.6783C204.169 16.5366 205.428 16.6243 206.69 16.5359C208.471 16.4122 210.3 16.4796 212.107 16.4328C213.315 16.4006 214.525 16.3262 215.721 16.2371C217.083 16.1366 218.435 15.9975 219.791 15.8817C219.892 15.8749 220.012 15.9192 220.125 15.9378C220.534 16.0045 220.938 16.1318 221.353 16.1273C222.993 16.1156 224.635 16.0643 226.273 16.0317C226.733 16.0215 226.728 16.0297 226.925 15.843C226.95 15.8203 227.066 15.8046 227.141 15.8048L231.807 15.6819C232.21 15.6728 232.619 15.6556 233.02 15.6597C234.761 15.6858 236.499 15.7094 238.24 15.7354C238.447 15.7371 238.667 15.6434 238.879 15.5949C238.64 15.5665 238.4 15.5067 238.164 15.5149C237.047 15.5619 235.931 15.6089 234.815 15.6585C234.712 15.6629 234.604 15.6388 234.497 15.6303C234.607 15.607 234.711 15.5737 234.825 15.5634L237.042 15.4126C237.143 15.4058 237.239 15.3756 237.336 15.3559C237.227 15.3502 237.12 15.3391 237.011 15.3387C234.917 15.3183 232.814 15.3247 230.728 15.267C229.431 15.2318 228.158 15.2003 226.879 15.3606C226.65 15.3894 226.436 15.4459 226.215 15.4897C226.459 15.5178 226.701 15.5486 226.947 15.5765C227.059 15.5872 227.179 15.587 227.296 15.5921C227.191 15.6045 227.073 15.6361 226.985 15.6264C226.513 15.5692 226.06 15.4767 225.579 15.4437C224.978 15.4006 224.345 15.357 223.749 15.3975C222.209 15.5022 220.687 15.7133 219.15 15.7573C217.717 15.7996 216.277 15.6534 214.832 15.6414C213.433 15.6289 211.949 15.5591 210.643 15.7371C209.007 15.9586 207.326 15.6502 205.751 16.0171C205.489 16.0769 205.007 15.905 204.63 15.9149C201.805 15.9782 198.983 16.0782 196.16 16.1283C193.56 16.1738 190.962 16.1745 188.362 16.1885C188.187 16.1899 188.012 16.1546 187.838 16.1375C187.947 16.0697 188.065 16.0039 188.162 15.9344C188.23 15.8851 188.269 15.8274 188.323 15.7712C188.213 15.7551 188.066 15.7073 187.999 15.7251C187.706 15.7974 187.438 15.8865 187.156 15.9686C187.036 16.003 186.908 16.0327 186.782 16.0623C186.759 16.0324 186.759 15.9852 186.71 15.9701C186.501 15.9082 186.273 15.8004 186.06 15.8069C184.503 15.8524 182.958 16.1358 181.394 15.9298C181.005 15.8775 180.677 15.7424 180.283 15.7009C180.045 15.6751 179.739 15.7562 179.462 15.7882C179.652 15.8383 179.841 15.8884 180.025 15.9362C180.155 15.972 180.273 16.0165 180.395 16.0555C179.858 16.0972 179.319 16.1443 178.778 16.1654C178.741 16.1679 178.697 15.9846 178.621 15.8926C178.578 15.8378 178.471 15.7952 178.391 15.7482C178.18 15.8228 177.929 15.8819 177.773 15.9738C177.625 16.06 177.737 16.0262 177.037 15.8218C176.429 15.6452 175.625 15.5897 174.91 15.4782C172.994 15.1806 171.014 15.4622 169.105 15.542C167.816 15.5955 166.605 15.8878 165.241 15.6446C164.78 15.563 164.088 15.7098 163.501 15.7523C164.062 15.8323 164.638 15.8955 165.177 15.9953C165.419 16.0392 165.602 16.1502 165.781 16.243C165.825 16.2662 165.747 16.3319 165.726 16.3779C165.562 16.3471 165.405 16.3105 165.234 16.2854C163.891 16.0932 162.563 15.8817 161.197 15.7252C160.701 15.6671 160.11 15.7413 159.564 15.7601L157.37 15.8409C157.23 15.8478 157.09 15.8704 156.953 15.885C156.993 15.8403 157.079 15.7872 157.061 15.7491C157.024 15.6807 156.91 15.5625 156.852 15.5665C156.404 15.5969 155.964 15.6478 155.523 15.6935C155.623 15.7654 155.716 15.8405 155.83 15.9088C155.921 15.963 156.039 16.0101 156.146 16.0606C156 16.1046 155.859 16.1798 155.71 16.1847C155.477 16.1927 155.243 16.1534 155.008 16.1327C155.172 16.2003 155.343 16.2621 155.492 16.3334C155.525 16.3495 155.459 16.4301 155.448 16.4308C154.971 16.416 154.494 16.4038 154.017 16.389C154.143 16.2833 154.255 16.1733 154.4 16.0717C154.544 15.9674 154.722 15.874 154.885 15.7736C154.666 15.8068 154.449 15.8583 154.224 15.8736C153.679 15.9107 153.127 15.9587 152.581 15.9564C151.932 15.9533 151.286 15.8712 150.641 15.881C148.37 15.9198 146.1 15.977 143.829 16.0474C143.227 16.0673 142.543 16.098 142.058 16.236C141.656 16.3499 141.483 16.6267 141.224 16.8333C141.158 16.885 141.152 16.951 141.118 17.0084C140.884 16.9246 140.642 16.8466 140.428 16.7535C140.404 16.7421 140.531 16.6521 140.615 16.607C140.785 16.5219 140.974 16.4435 141.157 16.3602C140.892 16.331 140.628 16.2833 140.356 16.2807C138.651 16.2706 136.944 16.2607 135.236 16.2482C134.948 16.2467 134.662 16.2216 134.377 16.2069C134.707 16.1687 135.033 16.1229 135.369 16.1C135.544 16.0882 135.742 16.143 135.913 16.126C136.204 16.0984 136.479 16.0377 136.763 15.9922C136.476 15.9513 136.192 15.8762 135.899 15.8725C134.558 15.8612 133.214 15.8869 131.878 15.8623C131.569 15.857 131.283 15.7164 130.99 15.6313C130.892 15.6038 130.823 15.5587 130.72 15.5368C130.688 15.5311 130.558 15.5741 130.533 15.602C130.188 16.0034 130.029 16.0405 129.079 15.9502C128.974 15.9389 128.858 15.9521 128.746 15.9518C128.816 15.9995 128.875 16.0874 128.955 16.0898C129.539 16.1053 130.125 16.0942 130.709 16.1123C130.967 16.121 131.22 16.1642 131.46 16.2109C131.522 16.2224 131.516 16.2963 131.543 16.3391C131.308 16.3603 131.064 16.4084 130.838 16.4001C130.166 16.3749 129.336 16.4182 128.877 16.2631C128.414 16.1082 127.299 16.4806 127.432 15.9335C126.607 15.9266 125.78 15.9198 124.955 15.9129C124.026 15.8973 123.099 15.8789 122.174 15.8447C121.945 15.8366 121.735 15.7643 121.517 15.7214C121.627 15.8136 121.737 15.9059 121.844 15.9957C121.918 16.0616 121.989 16.125 122.062 16.1882C121.925 16.1739 121.789 16.1648 121.655 16.1477C121.027 16.0643 120.407 15.9701 119.769 15.9031C119.627 15.8892 119.434 15.9758 119.256 15.9879C119.156 15.9947 119.038 15.9476 118.931 15.926L119.359 15.7788C119.274 15.74 119.195 15.6718 119.102 15.6703C118.551 15.6553 117.994 15.6406 117.442 15.6545C115.201 15.7045 112.959 15.7335 110.719 15.7571C109.336 15.7592 107.954 15.7587 106.569 15.761C104.639 15.7793 102.745 15.7978 100.905 15.6394C100.304 15.5963 99.7183 15.5127 99.131 15.4398C98.5554 15.3424 97.9752 15.2559 97.4158 15.1233C96.2956 14.8766 95.2085 14.57 94.2071 14.1551C94.1006 14.1125 93.9918 14.0779 93.8904 14.0323L93.5856 13.8903C93.3824 13.7965 93.1744 13.7083 92.9763 13.6115L92.3966 13.2966C92.2999 13.2429 92.1984 13.1973 92.1066 13.1379L91.8339 12.9596C91.653 12.8407 91.4645 12.7275 91.2887 12.6056L90.7777 12.2073C90.4337 11.9577 90.1091 11.6412 89.7424 11.2935C89.1483 10.7276 88.505 10.0654 87.6937 9.39616C86.891 8.73424 85.8702 8.03465 84.5844 7.62077C83.9488 7.42252 83.2584 7.28047 82.5846 7.26329C81.9128 7.23808 81.249 7.29107 80.6431 7.4136C79.4206 7.65678 78.3816 8.09744 77.4698 8.56882C76.7505 8.94051 76.1073 9.3359 75.5035 9.72336L73.7822 10.8429L70.3684 13.0773C68.0637 14.5724 65.7625 16.0804 63.4399 17.5479C61.7879 18.5918 60.0907 19.5575 58.4355 20.5938C57.1424 21.4034 55.8974 22.2937 54.6077 23.1136L49.2894 26.4722C48.8279 26.7633 48.443 27.0073 48.059 27.225C47.6749 27.4427 47.3052 27.6358 46.9638 27.7771C46.6226 27.921 46.3101 28.0183 46.0633 28.064C45.8166 28.1123 45.6513 28.1051 45.5678 28.0898C45.496 28.0894 45.4695 28.0519 45.418 28.037C45.3792 28.0134 45.3234 27.9752 45.2313 27.8712C45.0475 27.6711 44.7759 27.1962 44.5311 26.5672C44.4032 26.2505 44.2811 25.9018 44.1368 25.4996L43.7197 24.3312L42.8855 21.9944C42.1462 19.9189 41.4067 17.8407 40.6674 15.7651C40.1339 14.2923 39.5487 12.8414 39.0178 11.3684L37.5988 7.42849C37.4871 7.1159 37.3463 6.72655 37.1988 6.35603C37.0427 5.9756 36.8837 5.59274 36.6812 5.19446C36.4814 4.79863 36.2625 4.3936 35.9815 3.97703C35.8507 3.77334 35.6848 3.56154 35.5271 3.35443C35.3479 3.14353 35.1798 2.93975 34.9611 2.73416C34.7583 2.52749 34.5246 2.33604 34.2692 2.13819C33.9984 1.94926 33.7196 1.75826 33.4201 1.6159C33.1248 1.4575 32.8112 1.34235 32.4955 1.2352C32.1732 1.1495 31.8482 1.06137 31.5161 1.0262C31.1834 0.983195 30.8505 0.974331 30.5163 0.986546C30.3522 0.997698 30.1775 1.00957 30.0221 1.03063C29.8666 1.05169 29.7138 1.07258 29.5723 1.10319C28.9924 1.21609 28.4883 1.38944 28.0432 1.56928C27.5983 1.75174 27.2073 1.94628 26.8529 2.13045C26.496 2.31742 26.2016 2.4844 25.8812 2.66102C25.2507 3.0083 24.6174 3.35316 23.9959 3.71558C23.8245 3.81384 23.6682 3.93993 23.5057 4.05333C23.7017 3.9639 23.8979 3.87708 24.0909 3.78261C24.5616 3.54854 25.0354 3.32212 25.5096 3.10093L26.2208 2.76654L26.9527 2.42548C27.0559 2.3791 27.1611 2.36146 27.2733 2.33021C27.189 2.38056 27.1048 2.43351 27.0179 2.48404C26.6363 2.69893 26.3202 2.89888 25.9727 3.10621L24.9511 3.72415C24.2751 4.14538 23.5959 4.55897 22.9106 4.95984C20.7907 6.20094 18.6715 7.45248 16.6141 8.79167C14.88 9.91994 13.2023 11.1336 11.515 12.3243C9.23137 13.9334 6.96817 15.5701 4.7726 17.3018C4.5985 17.4396 4.40587 17.5787 4.26707 17.7272C3.96459 18.0496 3.70058 18.3903 3.42016 18.7243C3.74052 18.5477 4.05789 18.3661 4.38107 18.1919C4.45799 18.1499 4.5372 18.1025 4.61182 18.066C4.79723 17.9773 4.97718 17.8863 5.15994 17.7978C5.00439 17.9737 4.86684 18.1799 4.6878 18.3232L2.94999 19.7483L1.23266 21.2009C0.984135 21.4172 0.753082 21.656 0.51338 21.8849C0.757537 21.7607 1.00347 21.6626 1.24814 21.5069C1.69445 21.2272 2.1441 20.9185 2.59181 20.6204L1.39346 21.728C0.59532 22.4646 0.277495 23.2263 0.639064 23.6951C0.881289 24.0119 1.47366 23.6515 2.1013 23.223C2.85541 22.6994 3.60086 22.1265 4.35249 21.5662C5.11877 21.026 5.88594 20.4988 6.73611 20.1366C7.34811 19.8693 8.00926 19.4255 8.6974 18.9483C9.37972 18.4637 10.0862 17.9432 10.7719 17.5082C10.8229 17.4759 10.8924 17.4817 10.9404 17.4836C11.0655 17.4856 11.255 17.5357 11.295 17.4989C12.9275 16.0101 14.7548 15.4319 16.5023 14.4235C17.221 14.0046 17.9658 13.6574 18.699 13.2952C19.4412 12.9482 20.1715 12.5837 20.8881 12.1728C22.742 11.0863 24.564 9.88378 26.4446 8.79805C27.0662 8.43825 27.6911 8.0861 28.3248 7.74647L29.2686 7.23617C29.5663 7.07946 29.8311 6.94599 30.0585 6.84917C30.3299 6.73363 30.5548 6.67897 30.6686 6.67124C30.7375 6.66656 30.7272 6.67251 30.7357 6.6798C30.7417 6.68989 30.7489 6.6789 30.7498 6.69197C30.7634 6.69629 30.7629 6.68845 30.7931 6.70215C30.8487 6.73774 30.9763 6.85504 31.114 7.04251C31.3977 7.42215 31.7016 8.06023 31.9587 8.79072L32.6754 10.8862L33.392 13.0184C33.8688 14.4399 34.3508 15.8585 34.8485 17.2734L37.5227 24.776L38.1953 26.6514C38.4244 27.2841 38.621 27.8691 38.9079 28.608C39.1909 29.3289 39.5377 30.1294 40.1112 30.9775C40.3951 31.3991 40.7434 31.8295 41.1779 32.2356C41.6095 32.6393 42.1243 33.0163 42.6914 33.3006C43.0016 33.4449 43.3096 33.5945 43.6405 33.6901C43.8034 33.7394 43.9695 33.7964 44.1341 33.8324C44.2987 33.8685 44.4657 33.8991 44.6324 33.9271C44.7996 33.9604 44.9626 33.9729 45.123 33.9857C45.2834 33.9984 45.4519 34.0132 45.6088 34.013C45.9169 34.0078 46.2414 34.0094 46.5284 33.9689C47.1308 33.9122 47.6538 33.7822 48.1652 33.6398C48.6548 33.4884 49.1245 33.3174 49.5475 33.126C50.4047 32.7501 51.1575 32.3237 51.8437 31.8965L52.7921 31.2967L53.7065 30.707C55.9063 29.2715 58.0471 27.7508 60.232 26.2927C61.4123 25.5065 62.6362 24.7751 63.8395 24.0136C63.9873 23.9196 64.1143 23.7928 64.2501 23.6786C64.1118 23.7169 63.9777 23.7391 63.8325 23.7936C63.7055 23.8416 63.57 23.9217 63.4389 23.9883C63.5889 23.8863 63.7386 23.7816 63.8916 23.6846L72.2303 18.407L78.9504 14.158C79.9838 13.5183 80.9541 13.0455 81.696 12.8901C82.0678 12.8045 82.3527 12.8114 82.6026 12.8495C82.853 12.8955 83.1029 12.973 83.4301 13.1712C83.5081 13.2236 83.6158 13.2032 83.7197 13.246C83.9856 13.325 84.3305 13.4302 84.5981 13.6508C85.0129 14.0032 85.4538 14.4272 85.9398 14.8876C86.1815 15.1179 86.4399 15.3601 86.7119 15.6067L87.1361 15.9794L87.5939 16.3393C88.1941 16.8366 88.8498 17.2513 89.5053 17.6634L90.5185 18.2139C90.8577 18.3929 91.2104 18.5343 91.5563 18.6945C91.9795 18.8967 92.4371 18.9784 92.8768 19.1113C92.4467 18.9253 92.0131 18.7658 91.5964 18.5422L91.2383 18.3592C91.3501 18.3988 91.4642 18.4357 91.5737 18.4807C94.2975 19.5527 96.9649 20.4212 99.8063 20.5247C101.141 20.5678 102.498 20.6121 103.867 20.6555C105.215 20.6925 106.555 20.7195 107.859 20.707C110.264 20.6853 112.907 20.7156 115.315 20.6674C116.677 20.6405 118.039 20.5663 119.398 20.5395L132.427 20.3075C132.953 20.298 133.479 20.2439 134.005 20.2108C133.462 20.1611 132.916 20.1115 132.373 20.0592C132.255 20.0489 132.131 20.0495 132.008 20.0447C132.131 20.0153 132.255 19.9623 132.38 19.9617L135.527 19.9105C135.607 19.9103 135.688 19.9258 135.765 19.9337C135.668 19.9534 135.547 19.9669 135.475 19.9981C135.296 20.0758 135.143 20.1649 134.978 20.247C135.03 20.2645 135.083 20.295 135.136 20.294L138.647 20.2417C138.751 20.2399 138.905 20.1586 138.933 20.1042C138.957 20.0606 138.846 19.992 138.75 19.9591C138.674 19.9302 138.531 19.9373 138.419 19.9266C138.538 19.9185 138.657 19.9078 138.773 19.9025C140.633 19.8469 142.496 19.7466 144.349 19.7518C146.716 19.7589 149.069 19.8694 151.435 19.8975C152.079 19.9063 152.749 19.7925 153.398 19.7195C153.559 19.7007 153.687 19.6211 153.829 19.5668C153.666 19.5465 153.503 19.5076 153.339 19.5083C152.193 19.5101 151.043 19.5357 149.899 19.5269C149.247 19.5213 148.601 19.4734 147.957 19.4332C147.845 19.4276 147.749 19.3765 147.645 19.3441C147.767 19.3332 147.885 19.3173 148.007 19.3116C149.167 19.2748 150.326 19.238 151.486 19.2012C152.273 19.1713 153.063 19.0862 153.847 19.0827C155.176 19.0816 156.5 19.1596 157.829 19.1428C160.472 19.1127 163.136 18.6745 165.762 19.0892C165.845 19.1019 165.977 19.0509 166.093 19.0352C166.702 18.9623 167.309 18.8869 167.921 18.8138C168.158 18.7872 168.411 18.791 168.646 18.7646C168.691 18.7615 168.727 18.6252 168.703 18.6216C168.464 18.5854 168.213 18.5394 167.963 18.5406L161.287 18.5771L159.615 18.5831C160.224 18.5444 160.833 18.5082 161.442 18.4695C163.439 18.3652 165.435 18.2243 167.434 18.1777C170.147 18.1141 172.865 18.1262 175.581 18.1069C177.301 18.095 179.022 18.1145 180.74 18.0791C184.115 18.0072 187.496 17.9559 190.859 17.7981C193.271 17.6841 195.656 17.4013 198.055 17.212C198.43 17.1813 199.109 17.1876 199.172 17.2594C199.345 17.4576 199.242 17.4751 199.757 17.4611C200.224 17.4477 200.691 17.4344 201.538 17.4083C201.716 17.4093 202.275 17.4186 202.833 17.4096L202.842 17.4247ZM158.28 16.8656C158.182 16.8644 158.09 16.8129 157.998 16.785C158.063 16.7596 158.134 16.7076 158.192 16.7088C159.15 16.7488 160.107 16.7913 161.062 16.8314C161.126 16.8349 161.169 16.8923 161.225 16.9227C161.862 16.8715 162.496 16.81 163.137 16.7769C163.339 16.7659 163.556 16.8351 163.765 16.8655C163.537 16.902 163.302 16.9678 163.076 16.9675C162.464 16.9644 161.853 16.9351 161.243 16.9162C160.252 16.8969 159.268 16.8798 158.285 16.86L158.28 16.8656ZM177.778 16.6348C177.271 16.6431 176.763 16.5254 176.256 16.4601C176.197 16.4536 176.158 16.4222 176.111 16.4017C176.291 16.3869 176.47 16.359 176.648 16.3574C178.858 16.3568 181.067 16.3562 183.276 16.353C183.784 16.35 184.299 16.2651 184.809 16.2095C184.991 16.1893 185.158 16.1438 185.331 16.1084C185.351 16.1726 185.434 16.2484 185.378 16.2968C185.296 16.3706 185.143 16.465 184.982 16.4838C184.689 16.5195 184.367 16.5099 184.056 16.5179L184.052 16.4578C181.961 16.5186 179.868 16.5926 177.778 16.6296L177.778 16.6348ZM110.324 16.0464C110.491 16.0429 110.66 16.1049 110.827 16.1356C110.678 16.1693 110.528 16.2346 110.379 16.2369C109.596 16.2455 108.812 16.2226 108.029 16.2365C106.276 16.269 104.554 16.3179 102.854 16.2654C102.479 16.2594 102.112 16.1846 101.744 16.1361C101.691 16.1293 101.653 16.0846 101.609 16.0561L102.263 15.9854L102.277 16.0789C103.586 16.129 104.911 16.1361 106.253 16.1184L110.324 16.0464ZM174.894 15.7128C175.084 15.7288 175.211 15.9039 175.319 16.0146C175.345 16.0391 175.176 16.1031 175.097 16.1505C174.966 16.1016 174.832 16.0084 174.705 16.0118C174.373 16.0212 174.036 16.0651 173.712 16.1108C173.564 16.1313 173.44 16.1869 173.305 16.225C173.242 16.1689 173.213 16.0948 173.112 16.057C172.943 15.995 172.739 15.9275 172.531 15.918C172.403 15.911 172.222 16.0572 172.094 16.0501C171.603 16.0232 171.128 15.9609 170.643 15.9125C171.011 15.8429 171.369 15.7608 171.749 15.7088C172.073 15.6632 172.42 15.65 172.648 15.632C173.471 15.6574 174.197 15.6579 174.894 15.7128ZM77.9594 8.84786C78.1315 8.76005 78.3461 8.74809 78.5396 8.70082C78.3811 8.79295 78.223 8.89293 78.0639 8.97723C77.029 9.51733 76.1245 10.1352 75.2902 10.6932L72.7723 12.376C72.6273 12.4724 72.415 12.479 72.2322 12.5281C72.35 12.423 72.4537 12.3058 72.5859 12.2154C73.473 11.6145 74.3628 11.0134 75.2524 10.4097L75.2697 10.4295C76.0746 9.91025 76.9554 9.33338 77.959 8.84263L77.9594 8.84786ZM153.49 17.1151C153.306 17.117 153.125 17.0768 152.943 17.0551C153.098 17.0184 153.255 16.9499 153.409 16.9499C154.454 16.9524 155.497 16.9524 156.542 16.9549C156.6 16.9561 156.658 16.9759 156.716 16.9771L157.671 16.9779C157.258 17.0138 156.848 17.0706 156.436 17.0775C156.011 17.0854 155.583 17.0463 155.159 17.0279L155.156 17.07C154.602 17.0867 154.048 17.1086 153.492 17.1149L153.49 17.1151ZM93.8591 14.4334C93.9465 14.4668 94.0155 14.5435 94.0965 14.6009C94.0138 14.5961 93.9266 14.6046 93.8477 14.5785C93.5481 14.4729 93.2653 14.3425 92.9727 14.2233C92.8254 14.1677 92.6851 14.0985 92.5472 14.0265L92.1314 13.8159L91.851 13.6802L91.5852 13.525C91.408 13.4216 91.2306 13.3155 91.0582 13.2039C90.8857 13.0923 90.7799 12.9052 90.6422 12.7571C90.8039 12.8275 90.967 12.8794 91.1193 12.9688C91.3476 13.0819 91.5678 13.2296 91.7896 13.3641L91.7778 13.3859C91.9342 13.496 92.1077 13.584 92.2787 13.6747L92.7893 13.9497C93.1435 14.1146 93.5026 14.2739 93.8618 14.4332L93.8591 14.4334ZM89.4576 11.5228C89.6286 11.6923 89.7591 11.8907 89.9012 12.0648C89.622 11.9079 89.2862 11.7785 89.0468 11.5429C88.511 11.015 87.9821 10.3922 87.3216 9.78887C87.1622 9.63436 87.0111 9.48454 86.8545 9.33247C87.0455 9.44284 87.2594 9.53853 87.4332 9.67106C87.6346 9.81746 87.8143 9.99683 87.9224 10.0997C88.5384 10.6352 89.0189 11.0933 89.4576 11.5228ZM170.218 16.7786C170.008 16.7798 169.801 16.7466 169.595 16.7265C169.787 16.6924 169.982 16.6319 170.173 16.6294L174.211 16.607C174.325 16.6071 174.435 16.6258 174.548 16.6366L174.182 16.6536L171.881 16.7207L171.882 16.7311C171.327 16.7478 170.773 16.7698 170.221 16.7758L170.218 16.7786ZM125.696 17.1616C125.653 17.1855 125.44 17.1501 125.304 17.1436L126.507 16.2562C126.667 16.3004 126.827 16.3447 127.008 16.3927C126.535 16.6742 126.129 16.9196 125.694 17.1592L125.696 17.1616ZM154.88 18.7895C154.601 18.8005 154.312 18.7283 154.028 18.6925C154.299 18.6583 154.572 18.5978 154.845 18.5897C155.862 18.5653 156.877 18.5592 157.892 18.548L158.708 18.545L157.837 18.6436L157.822 18.6157C156.842 18.6745 155.861 18.7464 154.88 18.7868L154.88 18.7895ZM68.1531 15.3012C68.0284 15.3832 67.8657 15.4152 67.7207 15.4723C67.8249 15.3629 67.9142 15.2282 68.0389 15.1463C68.8837 14.5876 69.7346 14.0416 70.5856 13.4956C70.6698 13.4427 70.7802 13.4247 70.8764 13.3919C70.6749 13.5578 70.5592 13.6549 70.5088 13.6951C69.5306 14.3652 68.845 14.8395 68.1505 15.3014L68.1531 15.3012ZM135.097 17.4911C135.227 17.443 135.344 17.372 135.492 17.3515C136.19 17.262 136.895 17.1826 137.6 17.1085C137.731 17.0943 137.885 17.1258 138.03 17.137C137.955 17.1709 137.894 17.2144 137.802 17.2364C137.695 17.2621 137.565 17.2657 137.447 17.2842C136.828 17.3709 136.211 17.46 135.529 17.5562C135.422 17.5399 135.258 17.5169 135.092 17.4915L135.097 17.4911ZM117.902 16.8647C117.673 16.9116 117.451 16.9635 117.22 17.0029C117.141 17.0161 117.033 16.9972 116.949 17.0055C116.587 17.0485 116.229 17.0912 115.867 17.1315C115.864 17.0949 115.828 17.0318 115.865 17.0241C116.28 16.9171 116.707 16.8172 117.147 16.7139C117.446 16.7723 117.675 16.8171 117.904 16.8619L117.902 16.8647ZM106.221 16.6769C106.301 16.7187 106.367 16.7799 106.466 16.7915C106.744 16.8225 107.042 16.8258 107.324 16.8566C107.458 16.8711 107.57 16.9212 107.695 16.9547C107.586 16.9936 107.485 17.045 107.364 17.0638C107.225 17.0864 107.04 17.0648 106.917 17.0942C106.379 17.2305 106.148 17.1648 106.122 16.8201C106.137 16.7982 106.177 16.735 106.219 16.6745L106.221 16.6769ZM148.119 17.2045C147.878 17.2524 147.616 17.3489 147.397 17.3375C146.909 17.313 146.441 17.2319 145.966 17.175C146.31 17.1411 146.653 17.1047 147.205 17.0488C147.428 17.0861 147.775 17.1439 148.122 17.2043L148.119 17.2045ZM134.32 17.4101C133.925 17.4606 133.532 17.5424 133.131 17.5565C132.646 17.5737 132.153 17.5311 131.663 17.5145C132.128 17.4698 132.59 17.4253 132.881 17.3977C133.482 17.404 133.9 17.4071 134.318 17.4102L134.32 17.4101ZM36.5726 8.60574L37.1048 10.2938L36.4654 8.67077C36.4205 8.55835 36.3831 8.43754 36.346 8.32196L36.0984 7.53571C36.0106 7.26086 35.9202 6.98619 35.8161 6.7072C35.9468 6.987 36.0641 7.2651 36.1785 7.54076L36.5032 8.32703L36.4751 8.34468C36.505 8.43188 36.5401 8.51872 36.5674 8.6061L36.5726 8.60574ZM129.152 16.6328C128.942 16.6812 128.717 16.7778 128.525 16.7699C128.149 16.7534 127.791 16.6807 127.423 16.6322C127.603 16.5832 127.783 16.5316 127.982 16.4761C128.395 16.532 128.773 16.5824 129.151 16.6302L129.152 16.6328ZM121.655 17.7486C122.117 17.6988 122.577 17.6229 123.041 17.6097C123.493 17.5974 123.946 17.6532 124.4 17.6801C123.895 17.7249 123.39 17.7698 122.946 17.8104C122.466 17.7879 122.06 17.7683 121.658 17.7484L121.655 17.7486ZM96.2043 15.8801C95.9819 15.9346 95.7388 15.9958 95.4703 15.9956C95.4037 15.9949 95.214 15.8241 95.0828 15.7333C95.3937 15.7305 95.7018 15.7253 96.0799 15.6944C96.1303 15.7697 96.2332 15.8756 96.2044 15.8828L96.2043 15.8801ZM95.4705 15.2162C95.694 15.2193 95.9222 15.1723 96.1532 15.2065C96.2957 15.2309 96.4447 15.3888 96.5925 15.489C96.3964 15.4997 96.2002 15.5077 95.9565 15.5217C95.7575 15.4092 95.6154 15.3139 95.4731 15.216L95.4705 15.2162ZM133.694 16.7624C133.357 16.6908 133.057 16.5905 132.746 16.5014C132.856 16.4886 132.972 16.4624 133.078 16.4683C133.43 16.4838 133.78 16.5072 134.13 16.5281L134.129 16.6699C133.98 16.7036 133.78 16.7802 133.691 16.7626L133.694 16.7624Z" fill="#C75A1F"/>
</svg>
