<svg width="665" height="254" viewBox="0 0 665 254" fill="none" xmlns="http://www.w3.org/2000/svg">
<g clip-path="url(#clip0_202_197)">
<path d="M199.264 172.519H0V173.601H199.264V172.519Z" fill="#344F4F"/>
<path d="M665 172.519H465.735V173.601H665V172.519Z" fill="#344F4F"/>
<path d="M300.522 185.909H284.807L296.415 172.715C299.283 169.416 300.522 166.741 300.522 163.773C300.522 157.033 295.552 154.403 291.062 154.403C286.572 154.403 281.601 156.89 281.601 164.059V164.682H284.132V164.059C284.132 159.61 287.045 156.838 291.054 156.838C295.214 156.883 297.984 159.708 297.984 163.773C297.984 165.877 297.076 168.266 294.591 171.092L281.594 185.917V188.359H300.515V185.917L300.522 185.909Z" fill="#344F4F"/>
<path d="M327.326 179.169V164.059C327.326 156.89 322.311 154.403 317.866 154.403C313.421 154.403 308.405 156.89 308.405 164.059V179.169C308.405 186.337 313.421 188.824 317.866 188.824C322.311 188.824 327.326 186.337 327.326 179.169ZM310.943 179.169V164.059C310.943 159.61 313.856 156.838 317.873 156.838C321.89 156.838 324.796 159.61 324.796 164.059V179.169C324.796 183.617 321.883 186.39 317.873 186.39C313.864 186.39 310.943 183.617 310.943 179.169Z" fill="#344F4F"/>
<path d="M354.019 163.773C354.019 157.033 349.048 154.403 344.558 154.403C340.068 154.403 335.098 156.89 335.098 164.059V164.682H337.628V164.059C337.628 159.61 340.541 156.838 344.558 156.838C348.718 156.883 351.488 159.708 351.488 163.773C351.488 165.877 350.58 168.266 348.095 171.092L335.098 185.917V188.359H354.019V185.917H338.296L349.904 172.722C352.772 169.423 354.011 166.749 354.011 163.781L354.019 163.773Z" fill="#344F4F"/>
<path d="M380.441 179.357C380.441 175.63 378.526 172.805 375.808 171.467C378.676 170.077 380.441 167.5 380.441 163.675C380.441 157.176 375.523 154.396 370.98 154.396C366.438 154.396 361.52 156.883 361.52 164.051V164.434H364.05V164.051C364.05 159.603 366.963 156.83 370.973 156.83C374.982 156.83 377.903 159.791 377.903 163.668C377.903 167.545 375.613 170.22 371.453 170.22H369.013V172.662H371.355C375.605 172.662 377.903 175.863 377.903 179.357C377.903 183.895 375.417 186.382 371.213 186.382C367.008 186.382 364.05 183.655 364.05 179.162V178.778H361.52V179.162C361.52 186.382 366.535 188.817 371.22 188.817C376.521 188.817 380.441 185.759 380.441 179.349V179.357Z" fill="#344F4F"/>
<path d="M155.152 245.036C154.342 243.172 153.471 241.159 152.547 238.987C151.624 236.823 150.7 234.637 149.776 232.435C148.853 230.234 147.944 228.062 147.051 225.913C146.157 223.764 145.332 221.765 144.566 219.917H143.657C141.172 225.62 138.702 231.233 136.254 236.748C133.799 242.263 131.283 247.809 128.708 253.384C129.249 253.316 129.842 253.286 130.472 253.286C131.103 253.286 131.696 253.316 132.237 253.384C132.65 251.919 133.273 250.063 134.099 247.816C134.925 245.569 135.848 243.203 136.87 240.715C137.853 240.685 138.829 240.663 139.783 240.64C140.736 240.625 141.712 240.618 142.696 240.618C143.747 240.618 144.798 240.625 145.85 240.64C146.901 240.655 147.937 240.678 148.958 240.715C149.371 241.767 149.814 242.872 150.295 244.037C150.775 245.201 151.241 246.351 151.706 247.478C152.164 248.613 152.592 249.695 152.975 250.731C153.358 251.768 153.658 252.655 153.884 253.384C154.327 253.316 154.747 253.286 155.152 253.286H157.683C158.081 253.286 158.501 253.316 158.952 253.384C158.539 252.617 158.006 251.505 157.352 250.04C156.699 248.575 155.963 246.907 155.152 245.043V245.036ZM145.624 238.581C144.731 238.596 143.837 238.604 142.951 238.604C142.125 238.604 141.262 238.589 140.368 238.559C139.475 238.529 138.619 238.514 137.786 238.514L142.989 226.371L148.29 238.514C147.396 238.544 146.503 238.566 145.617 238.589L145.624 238.581Z" fill="#344F4F"/>
<path d="M200.323 237.199C200.007 234.441 199.692 231.639 199.392 228.783C199.091 225.936 198.761 222.975 198.408 219.917H197.785C196.989 221.382 196.125 222.96 195.202 224.651C194.278 226.341 193.347 228.062 192.409 229.813C191.47 231.563 190.547 233.292 189.638 234.997C188.73 236.703 187.881 238.288 187.085 239.754C186.289 241.219 185.591 242.519 184.983 243.653C184.375 244.788 183.917 245.652 183.594 246.261C181.139 241.767 178.796 237.387 176.551 233.111C174.306 228.843 172.084 224.44 169.884 219.917H169.073C168.817 222.464 168.517 225.154 168.164 227.972C167.811 230.79 167.428 233.652 167.015 236.553C166.603 239.453 166.175 242.338 165.724 245.209C165.281 248.079 164.846 250.799 164.433 253.384C164.943 253.316 165.499 253.286 166.107 253.286C166.715 253.286 167.271 253.316 167.781 253.384C167.781 252.107 167.864 250.476 168.022 248.485C168.179 246.494 168.374 244.375 168.592 242.128C168.817 239.881 169.065 237.605 169.336 235.29C169.606 232.984 169.854 230.835 170.079 228.858H170.177C172.279 233.066 174.374 237.184 176.461 241.219C178.548 245.254 180.546 249.274 182.46 253.286H182.888C184.795 248.951 186.815 244.803 188.932 240.836C191.05 236.868 193.205 232.878 195.405 228.858H195.502C196.013 232.999 196.441 237.064 196.794 241.046C197.147 245.028 197.492 249.139 197.845 253.384C198.228 253.316 198.603 253.286 198.964 253.286H201.209C201.576 253.286 201.952 253.316 202.327 253.384C201.944 250.739 201.591 248.072 201.276 245.374C200.961 242.684 200.638 239.957 200.323 237.199Z" fill="#344F4F"/>
<path d="M228.599 250.656C227.833 250.814 226.932 250.934 225.904 251.017C224.868 251.1 223.771 251.16 222.608 251.212C221.444 251.257 220.258 251.287 219.049 251.287H215.707C215.677 250.679 215.655 249.792 215.64 248.613C215.625 247.433 215.617 245.938 215.617 244.119V239.385C215.617 238.875 215.617 238.454 215.64 238.116C215.655 237.777 215.662 237.469 215.662 237.184C216.233 237.184 217.006 237.191 217.982 237.206C218.951 237.221 219.987 237.236 221.091 237.252C222.187 237.267 223.291 237.304 224.387 237.372C225.483 237.439 226.452 237.514 227.278 237.612C227.18 237.131 227.135 236.658 227.135 236.177C227.135 235.666 227.18 235.178 227.278 234.697C226.58 234.764 225.836 234.817 225.055 234.862C224.274 234.907 223.426 234.96 222.503 235.005C221.579 235.05 220.558 235.095 219.447 235.125C218.328 235.155 217.074 235.17 215.67 235.17C215.67 234.562 215.662 233.675 215.647 232.495C215.632 231.316 215.625 230.106 215.625 228.858C215.625 227.679 215.647 226.627 215.7 225.703C215.745 224.778 215.79 223.809 215.82 222.787C217.382 222.787 218.718 222.81 219.83 222.862C220.941 222.907 221.969 222.968 222.908 223.028C223.847 223.088 224.74 223.155 225.581 223.216C226.422 223.283 227.353 223.343 228.374 223.411C228.276 222.93 228.231 222.457 228.231 221.976C228.231 221.495 228.276 221.021 228.374 220.541C226.94 220.601 225.521 220.661 224.124 220.706C222.72 220.751 221.309 220.774 219.875 220.774C218.44 220.774 217.014 220.751 215.602 220.706C214.183 220.661 212.764 220.601 211.33 220.541C211.428 222.577 211.51 224.621 211.593 226.657C211.675 228.693 211.713 230.767 211.713 232.871V241.091C211.713 243.195 211.675 245.261 211.593 247.283C211.51 249.304 211.428 251.34 211.33 253.376C212.794 253.309 214.243 253.279 215.677 253.279H224.35C225.769 253.279 227.188 253.309 228.622 253.376C228.524 253.061 228.479 252.64 228.479 252.137C228.479 251.911 228.479 251.663 228.502 251.393C228.517 251.122 228.554 250.874 228.622 250.649L228.599 250.656Z" fill="#344F4F"/>
<path d="M225.641 210.066C224.973 210.066 224.252 210.449 223.494 211.216L216.474 218.339H218.478L225.499 213.846C225.882 213.59 226.265 213.297 226.647 212.959C227.03 212.621 227.218 212.17 227.218 211.599C227.218 211.088 227.038 210.705 226.67 210.449C226.302 210.194 225.964 210.066 225.641 210.066Z" fill="#344F4F"/>
<path d="M257.597 248.575C256.771 247.538 255.907 246.456 255.014 245.321C254.12 244.187 253.264 243.105 252.431 242.068C251.605 241.031 250.854 240.084 250.186 239.228C249.518 238.371 248.992 237.695 248.609 237.221C249.533 237.094 250.561 236.831 251.688 236.432C252.821 236.034 253.88 235.478 254.864 234.757C255.855 234.043 256.688 233.134 257.371 232.029C258.055 230.932 258.4 229.617 258.4 228.085C258.4 226.649 258.137 225.455 257.612 224.5C257.086 223.546 256.373 222.772 255.464 222.179C254.556 221.585 253.497 221.164 252.288 220.909C251.08 220.653 249.803 220.526 248.467 220.526C247.543 220.526 246.635 220.563 245.741 220.646C244.848 220.728 243.939 220.766 243.016 220.766C242.092 220.766 241.183 220.743 240.29 220.698C239.396 220.653 238.488 220.593 237.564 220.533C237.662 222.637 237.745 224.703 237.827 226.725C237.91 228.746 237.947 230.812 237.947 232.916V241.136C237.947 243.24 237.91 245.314 237.827 247.35C237.745 249.386 237.662 251.4 237.564 253.376C238.3 253.309 239.074 253.279 239.907 253.279C240.74 253.279 241.514 253.309 242.25 253.376C242.152 251.4 242.069 249.394 241.987 247.35C241.904 245.314 241.867 243.24 241.867 241.136V237.65H243.684C244.705 238.702 245.824 239.987 247.055 241.497C248.279 243.007 249.48 244.532 250.659 246.065C251.838 247.598 252.912 249.026 253.88 250.371C254.849 251.708 255.577 252.715 256.058 253.384C256.501 253.316 256.966 253.286 257.447 253.286H260.262C260.743 253.286 261.216 253.316 261.696 253.384C261.253 252.941 260.66 252.287 259.932 251.423C259.196 250.566 258.423 249.612 257.589 248.582L257.597 248.575ZM245.08 235.884C244.442 235.884 243.864 235.869 243.338 235.839C242.813 235.809 242.325 235.741 241.882 235.644V232.916C241.882 231.195 241.912 229.475 241.979 227.754C242.047 226.033 242.107 224.298 242.175 222.539C242.685 222.479 243.308 222.419 244.037 222.374C244.772 222.329 245.688 222.306 246.807 222.306C247.633 222.306 248.482 222.397 249.338 222.569C250.194 222.742 250.989 223.073 251.725 223.546C252.454 224.027 253.054 224.673 253.52 225.485C253.978 226.296 254.21 227.326 254.21 228.565C254.21 230.001 253.918 231.188 253.325 232.127C252.731 233.066 251.996 233.818 251.102 234.374C250.209 234.93 249.232 235.32 248.166 235.546C247.1 235.771 246.071 235.884 245.088 235.884H245.08Z" fill="#344F4F"/>
<path d="M273.575 226.725C273.657 224.703 273.74 222.637 273.838 220.533C273.425 220.593 273.027 220.653 272.644 220.698C272.261 220.743 271.878 220.766 271.495 220.766C271.112 220.766 270.729 220.743 270.346 220.698C269.963 220.653 269.565 220.593 269.152 220.533C269.25 222.637 269.333 224.703 269.415 226.725C269.498 228.746 269.535 230.812 269.535 232.916V241.136C269.535 243.24 269.498 245.314 269.415 247.35C269.333 249.386 269.25 251.4 269.152 253.376C269.888 253.309 270.662 253.279 271.495 253.279C272.328 253.279 273.102 253.309 273.838 253.376C273.74 251.4 273.657 249.394 273.575 247.35C273.492 245.314 273.455 243.24 273.455 241.136V232.916C273.455 230.812 273.492 228.753 273.575 226.725Z" fill="#344F4F"/>
<path d="M291.009 225.387C292.203 224.132 293.607 223.193 295.214 222.592C296.821 221.983 298.563 221.683 300.447 221.683C301.596 221.683 302.647 221.833 303.601 222.134C304.554 222.434 305.418 222.81 306.184 223.253C306.949 223.696 307.618 224.162 308.188 224.643C308.759 225.124 309.209 225.552 309.525 225.936L309.81 225.838C309.908 225.327 310.035 224.688 310.193 223.922C310.351 223.155 310.561 222.554 310.816 222.103C309.48 221.502 307.941 220.984 306.206 220.548C304.472 220.12 302.549 219.902 300.447 219.902C297.804 219.902 295.387 220.285 293.187 221.052C290.987 221.818 289.102 222.93 287.525 224.395C285.949 225.86 284.725 227.656 283.846 229.775C282.968 231.894 282.532 234.306 282.532 237.019C282.532 239.731 282.968 242.143 283.846 244.262C284.725 246.381 285.934 248.177 287.48 249.642C289.027 251.107 290.867 252.197 292.999 252.918C295.131 253.632 297.459 253.992 299.974 253.992C301.153 253.992 302.287 253.895 303.368 253.707C304.449 253.519 305.433 253.301 306.304 253.061C307.182 252.82 307.925 252.55 308.549 252.249C309.172 251.949 309.622 251.671 309.908 251.415L310.336 248.598L310.148 248.41C309.705 248.763 309.149 249.169 308.504 249.627C307.85 250.085 307.115 250.521 306.304 250.919C305.493 251.318 304.599 251.663 303.631 251.949C302.662 252.234 301.603 252.377 300.455 252.377C298.578 252.377 296.828 252.076 295.221 251.468C293.615 250.867 292.21 249.927 291.017 248.673C289.823 247.418 288.892 245.817 288.224 243.894C287.555 241.963 287.225 239.679 287.225 237.034C287.225 234.389 287.563 232.104 288.224 230.173C288.892 228.242 289.823 226.649 291.017 225.395L291.009 225.387Z" fill="#344F4F"/>
<path d="M339.881 245.036C339.07 243.172 338.199 241.159 337.276 238.987C336.352 236.823 335.428 234.637 334.505 232.435C333.581 230.234 332.673 228.062 331.779 225.913C330.886 223.764 330.06 221.765 329.294 219.917H328.386C325.9 225.62 323.43 231.233 320.982 236.748C318.527 242.263 316.012 247.809 313.437 253.384C313.977 253.316 314.57 253.286 315.201 253.286C315.832 253.286 316.425 253.316 316.965 253.384C317.378 251.919 318.002 250.063 318.828 247.816C319.653 245.569 320.577 243.203 321.598 240.715C322.582 240.685 323.558 240.663 324.511 240.64C325.465 240.625 326.441 240.618 327.425 240.618C328.476 240.618 329.527 240.625 330.578 240.64C331.629 240.655 332.665 240.678 333.687 240.715C334.1 241.767 334.543 242.872 335.023 244.037C335.504 245.201 335.969 246.351 336.435 247.478C336.9 248.605 337.321 249.695 337.704 250.731C338.086 251.768 338.387 252.655 338.612 253.384C339.055 253.316 339.476 253.286 339.881 253.286H342.411C342.809 253.286 343.23 253.316 343.68 253.384C343.267 252.617 342.734 251.505 342.081 250.04C341.428 248.575 340.692 246.907 339.881 245.043V245.036ZM330.353 238.581C329.459 238.596 328.566 238.604 327.68 238.604C326.854 238.604 325.99 238.589 325.097 238.559C324.204 238.529 323.348 238.514 322.514 238.514L327.717 226.371L333.018 238.514C332.125 238.544 331.231 238.566 330.345 238.589L330.353 238.581Z" fill="#344F4F"/>
<path d="M377.782 251.205C375.71 251.25 373.548 251.28 371.288 251.28C371.258 248.951 371.228 246.313 371.19 243.368C371.16 240.422 371.145 236.936 371.145 232.923C371.145 230.82 371.183 228.761 371.265 226.732C371.348 224.711 371.43 222.644 371.528 220.541C371.115 220.601 370.717 220.661 370.334 220.706C369.951 220.751 369.568 220.774 369.185 220.774C368.802 220.774 368.42 220.751 368.037 220.706C367.654 220.661 367.256 220.601 366.843 220.541C366.94 222.644 367.023 224.711 367.106 226.732C367.188 228.753 367.226 230.82 367.226 232.923V241.144C367.226 243.248 367.188 245.321 367.106 247.358C367.023 249.394 366.94 251.408 366.843 253.384C368.374 253.316 369.846 253.286 371.265 253.286H380.08C381.544 253.286 383.008 253.316 384.472 253.384C384.315 252.873 384.232 252.445 384.232 252.091C384.232 251.708 384.307 251.235 384.472 250.656C382.085 250.972 379.855 251.16 377.782 251.205Z" fill="#344F4F"/>
<path d="M416.075 245.036C415.264 243.172 414.393 241.159 413.47 238.987C412.546 236.823 411.623 234.637 410.699 232.435C409.776 230.234 408.867 228.062 407.974 225.913C407.08 223.764 406.254 221.765 405.489 219.917H404.58C402.095 225.62 399.624 231.233 397.177 236.748C394.722 242.263 392.206 247.809 389.631 253.384C390.171 253.316 390.765 253.286 391.395 253.286C392.026 253.286 392.619 253.316 393.16 253.384C393.573 251.919 394.196 250.063 395.022 247.816C395.848 245.569 396.771 243.203 397.792 240.715C398.776 240.685 399.752 240.663 400.706 240.64C401.659 240.625 402.635 240.618 403.619 240.618C404.67 240.618 405.721 240.625 406.772 240.64C407.824 240.655 408.86 240.678 409.881 240.715C410.294 241.767 410.737 242.872 411.217 244.037C411.698 245.201 412.163 246.351 412.629 247.478C413.087 248.613 413.515 249.695 413.898 250.731C414.281 251.768 414.581 252.655 414.806 253.384C415.249 253.316 415.67 253.286 416.075 253.286H418.606C419.004 253.286 419.424 253.316 419.875 253.384C419.462 252.617 418.928 251.505 418.275 250.04C417.622 248.575 416.886 246.907 416.075 245.043V245.036ZM406.547 238.581C405.654 238.596 404.76 238.604 403.874 238.604C403.048 238.604 402.185 238.589 401.291 238.559C400.398 238.529 399.542 238.514 398.708 238.514L403.912 226.371L409.213 238.514C408.319 238.544 407.426 238.566 406.54 238.589L406.547 238.581Z" fill="#344F4F"/>
<path d="M438.976 220.706C436.971 220.751 434.913 220.774 432.811 220.774C430.709 220.774 428.651 220.751 426.647 220.706C424.642 220.661 422.585 220.601 420.482 220.541C420.64 221.179 420.723 221.675 420.723 222.021C420.723 222.464 420.64 222.975 420.482 223.554C421.151 223.456 421.909 223.381 422.75 223.313C423.591 223.253 424.469 223.193 425.378 223.148C426.286 223.103 427.195 223.065 428.103 223.05C429.012 223.035 429.875 223.028 430.709 223.028C430.806 226.311 430.851 229.61 430.851 232.923V241.144C430.851 243.248 430.814 245.321 430.731 247.358C430.649 249.394 430.566 251.408 430.469 253.384C431.197 253.316 431.978 253.286 432.811 253.286C433.645 253.286 434.418 253.316 435.154 253.384C435.056 251.408 434.966 249.401 434.891 247.358C434.808 245.321 434.771 243.248 434.771 241.144V232.923C434.771 229.61 434.816 226.311 434.913 223.028C435.739 223.028 436.61 223.035 437.519 223.05C438.427 223.065 439.336 223.095 440.244 223.148C441.153 223.193 442.031 223.253 442.872 223.313C443.713 223.373 444.472 223.456 445.14 223.554C444.982 222.983 444.9 222.487 444.9 222.073C444.9 221.69 444.982 221.179 445.14 220.541C443.037 220.601 440.98 220.661 438.976 220.706Z" fill="#344F4F"/>
<path d="M457.199 226.725C457.281 224.703 457.364 222.637 457.462 220.533C457.049 220.593 456.651 220.653 456.268 220.698C455.885 220.743 455.502 220.766 455.119 220.766C454.736 220.766 454.353 220.743 453.97 220.698C453.587 220.653 453.189 220.593 452.776 220.533C452.874 222.637 452.957 224.703 453.039 226.725C453.122 228.746 453.159 230.812 453.159 232.916V241.136C453.159 243.24 453.122 245.314 453.039 247.35C452.957 249.386 452.874 251.4 452.776 253.376C453.512 253.309 454.286 253.279 455.119 253.279C455.952 253.279 456.726 253.309 457.462 253.376C457.364 251.4 457.281 249.394 457.199 247.35C457.116 245.314 457.079 243.24 457.079 241.136V232.916C457.079 230.812 457.116 228.753 457.199 226.725Z" fill="#344F4F"/>
<path d="M493.862 220.533C494.019 223.336 494.125 226.326 494.17 229.497C494.215 232.668 494.245 235.929 494.245 239.273V245.772C492.781 244.307 491.069 242.534 489.109 240.445C487.149 238.356 485.077 236.139 482.9 233.803C480.715 231.458 478.522 229.084 476.307 226.679C474.092 224.275 472.02 222.021 470.075 219.917H469.309C469.369 220.999 469.415 222.644 469.43 224.839C469.445 227.04 469.452 229.67 469.452 232.728C469.452 233.78 469.437 234.975 469.407 236.312C469.377 237.65 469.332 239.025 469.287 240.422C469.242 241.827 469.174 243.225 469.092 244.63C469.009 246.035 468.942 247.328 468.874 248.522C468.814 249.717 468.739 250.746 468.656 251.603C468.574 252.46 468.506 253.053 468.438 253.369C468.979 253.301 469.572 253.271 470.203 253.271C470.804 253.271 471.367 253.301 471.877 253.369C471.847 253.113 471.81 252.625 471.78 251.911C471.75 251.197 471.72 250.356 471.682 249.402C471.652 248.447 471.615 247.41 471.584 246.298C471.554 245.186 471.532 244.082 471.509 243C471.487 241.918 471.479 240.881 471.464 239.889C471.449 238.905 471.442 238.071 471.442 237.402C471.442 234.817 471.457 232.781 471.487 231.285C471.517 229.79 471.547 228.596 471.584 227.701C475.722 232.097 479.866 236.523 484.003 240.963C488.14 245.412 492.045 249.755 495.709 253.992H496.377V252.415C496.377 251.648 496.37 250.746 496.355 249.717C496.34 248.68 496.325 247.568 496.309 246.373C496.294 245.179 496.279 243.991 496.264 242.812C496.249 241.632 496.242 240.505 496.242 239.416V236.545C496.242 235.621 496.272 234.396 496.34 232.863C496.4 231.331 496.475 229.775 496.557 228.182C496.64 226.589 496.715 225.094 496.798 223.689C496.873 222.284 496.948 221.232 497.015 220.533C496.377 220.691 495.866 220.774 495.484 220.774C495.041 220.774 494.492 220.698 493.862 220.533Z" fill="#344F4F"/>
<path d="M530.098 245.036C529.287 243.172 528.416 241.159 527.492 238.987C526.569 236.823 525.645 234.637 524.722 232.435C523.798 230.234 522.89 228.062 521.996 225.913C521.103 223.764 520.277 221.765 519.511 219.917H518.602C516.117 225.62 513.647 231.233 511.199 236.748C508.744 242.263 506.229 247.809 503.653 253.384C504.194 253.316 504.787 253.286 505.418 253.286C506.049 253.286 506.642 253.316 507.182 253.384C507.595 251.919 508.218 250.063 509.044 247.816C509.87 245.569 510.794 243.203 511.815 240.715C512.798 240.685 513.775 240.663 514.728 240.64C515.682 240.625 516.658 240.618 517.641 240.618C518.693 240.618 519.744 240.625 520.795 240.64C521.846 240.655 522.882 240.678 523.903 240.715C524.316 241.767 524.759 242.872 525.24 244.037C525.72 245.201 526.186 246.351 526.651 247.478C527.117 248.605 527.537 249.695 527.92 250.731C528.303 251.768 528.604 252.655 528.829 253.384C529.272 253.316 529.692 253.286 530.098 253.286H532.628C533.026 253.286 533.446 253.316 533.897 253.384C533.484 252.617 532.951 251.505 532.298 250.04C531.644 248.575 530.909 246.907 530.098 245.043V245.036ZM520.57 238.581C519.676 238.596 518.783 238.604 517.897 238.604C517.071 238.604 516.207 238.589 515.314 238.559C514.42 238.529 513.564 238.514 512.731 238.514L517.934 226.371L523.235 238.514C522.342 238.544 521.448 238.566 520.562 238.589L520.57 238.581Z" fill="#344F4F"/>
<path d="M177.01 50.9443L173.016 52.7251V54.0776H189.466V52.8453L184.143 50.9217V28.3274L201.307 28.921V25.5999L184.143 26.1183V3.73441H201.187L207.546 13.4349H208.898L207.697 1.32996H172.94V2.68246L176.935 4.46325L177.01 50.9443Z" fill="#344F4F"/>
<path d="M234.141 52.7251L230.297 50.9443V31.3405H230.942C235.508 31.3405 238.931 33.234 241.424 37.1187L252.063 54.0625H263.724V52.5973L263.311 52.5522C259.842 52.1841 258.626 51.1321 257.214 48.9155L250.261 38.0354C248.054 34.5489 245.719 32.3098 242.888 31.0174C251.801 30.1909 257.432 24.6005 257.432 16.2977C257.432 7.99479 250.044 1.32996 240.253 1.32996H219.372V2.68246L223.366 4.46325V50.9443L219.372 52.7251V54.0776H234.126V52.7326L234.141 52.7251ZM238.638 28.9436H230.297V3.73441H238.638C246.154 3.73441 250.089 10.0611 250.089 16.3052C250.089 22.5492 246.154 28.9511 238.638 28.9511V28.9436Z" fill="#344F4F"/>
<path d="M281.113 52.8227L274.821 51.0119L279.792 37.4192H299.794L305.065 50.9893L300.462 52.8603V54.0776H316.478V52.8979L312.904 50.9217L292.571 1.32996H285.273L288.066 7.87457L272.148 50.8992L267.613 52.8678V54.0776H281.106V52.8227H281.113ZM280.648 35.0148L289.403 10.8726L298.848 35.0148H280.655H280.648Z" fill="#344F4F"/>
<path d="M363.66 4.46325L367.654 2.68246V1.32996H356.159V2.71251L361.257 4.49331V42.2056L335.031 1.54035L334.895 1.32996H322.792V2.67494L326.569 4.45574V50.9443L322.574 52.7251V54.0776H334.22V52.6875L328.964 50.9142V6.39433L360.078 54.5284L360.214 54.7388H363.66V4.46325Z" fill="#344F4F"/>
<path d="M401.884 55.4075C407.876 55.4075 414.296 54.0851 417.719 52.8603L418.035 52.7476L417.795 40.7855H416.473L411.51 50.3356C409.182 51.9812 405.533 53.0031 401.959 53.0031C386.079 53.0031 383.707 37.1487 383.707 27.7038C383.707 9.03171 393.542 2.40444 401.959 2.40444C404.572 2.40444 408.522 3.14832 411.075 4.77884L416.03 14.622H417.359L417.599 2.3293L417.246 2.23914C411.998 0.886634 408.094 0.00750732 401.892 0.00750732C386.635 0.00750732 375.98 11.3986 375.98 27.7113C375.98 44.024 386.147 55.415 401.892 55.415L401.884 55.4075Z" fill="#344F4F"/>
<path d="M434.111 50.9443L430.116 52.7251V54.0776H467.553L468.349 41.3039H467.005L461.013 51.6731H441.251V27.591L458.408 28.1846V24.856L441.251 25.3744V3.73441H458.295L464.655 13.4349H466.006L464.805 1.32996H430.041V2.68246L434.035 4.46325L434.111 50.9443Z" fill="#344F4F"/>
<path d="M83.6577 121.883L79.6633 123.656V125.009H117.1L117.903 112.243H116.552L110.56 122.612H90.7982V98.5223L107.955 99.1159V95.7948L90.7982 96.3132V74.6732H107.842L114.202 84.3661H115.553L114.352 72.2687H79.5957V73.6212L83.5901 75.402L83.6577 121.883Z" fill="#344F4F"/>
<path d="M137.545 123.619L131.959 121.921L145.654 100.694L158.599 121.958L154.446 123.649V125.009H169.794V123.701L166.783 121.845L150.354 95.5318L163.216 75.4621L167.278 73.6212V72.2687H155.19V73.6588L160.491 75.357L148.995 93.4053L137.763 75.3194L141.908 73.6363V72.2687H126.56V73.5912L129.879 75.4471L144.378 98.5599L129.076 121.83L125.449 123.679V125.009H137.545V123.619Z" fill="#344F4F"/>
<path d="M174.419 98.6425C174.419 115.474 184.585 126.346 200.33 126.346C206.322 126.346 212.742 125.031 216.165 123.807L216.481 123.694L216.24 111.732H214.919L209.956 121.282C207.628 122.927 203.979 123.942 200.405 123.942C184.525 123.942 182.153 108.088 182.153 98.6425C182.153 79.9705 191.988 73.3432 200.405 73.3432C203.018 73.3432 206.968 74.0871 209.52 75.7176L214.476 85.5608H215.805L216.045 73.2681L215.692 73.1779C210.452 71.8254 206.547 70.9463 200.338 70.9463C185.081 70.9463 174.426 82.3374 174.426 98.65L174.419 98.6425Z" fill="#344F4F"/>
<path d="M259.451 122.612H239.689V98.5223L256.853 99.1159V95.7948L239.689 96.3132V74.6732H256.733L263.092 84.3661H264.444L263.243 72.2687H228.486V73.6212L232.481 75.402L232.556 121.883L228.561 123.656V125.009H265.998L266.794 112.243H265.442L259.451 122.612Z" fill="#344F4F"/>
<path d="M313.173 111.506H311.807L306.183 122.462H288.433V75.387L292.285 73.4559V72.2687H277.306V73.6212L281.3 75.402V121.883L277.306 123.656V125.009H312.377L313.173 111.506Z" fill="#344F4F"/>
<path d="M351.451 122.462H333.702V75.387L337.546 73.4559V72.2687H322.574V73.6212L326.569 75.402V121.883L322.574 123.656V125.009H357.646L358.434 111.506H357.075L351.451 122.462Z" fill="#344F4F"/>
<path d="M371.904 121.883L367.909 123.656V125.009H405.346L406.149 112.243H404.798L398.806 122.612H379.044V98.5223L396.201 99.1159V95.7948L379.044 96.3132V74.6732H396.088L402.448 84.3661H403.799L402.598 72.2687H367.842V73.6212L371.836 75.402L371.904 121.883Z" fill="#344F4F"/>
<path d="M449.503 73.6513L454.609 75.4246V113.137L428.382 72.4791L428.239 72.2687H416.143V73.6137L419.912 75.3945V121.883L415.918 123.656V125.009H427.563V123.626L422.315 121.853V77.3256L453.422 125.467L453.557 125.678H457.004V75.402L460.998 73.6212V72.2687H449.503V73.6513Z" fill="#344F4F"/>
<path d="M495.229 126.346C501.221 126.346 507.64 125.031 511.064 123.807L511.38 123.694L511.139 111.732H509.818L504.855 121.282C502.527 122.927 498.878 123.942 495.304 123.942C479.424 123.942 477.051 108.088 477.051 98.6425C477.051 79.9705 486.887 73.3432 495.304 73.3432C497.917 73.3432 501.866 74.0871 504.419 75.7176L509.375 85.5608H510.704L510.944 73.2681L510.591 73.1779C505.35 71.8254 501.446 70.9463 495.237 70.9463C479.98 70.9463 469.325 82.3374 469.325 98.65C469.325 114.963 479.492 126.354 495.237 126.354L495.229 126.346Z" fill="#344F4F"/>
<path d="M527.455 121.883L523.46 123.656V125.009H560.897L561.693 112.243H560.349L554.357 122.612H534.595V98.5223L551.752 99.1159V95.7948L534.595 96.3132V74.6732H551.639L557.999 84.3661H559.35L558.149 72.2687H523.393V73.6212L527.387 75.402L527.455 121.883Z" fill="#344F4F"/>
</g>
<defs>
<clipPath id="clip0_202_197">
<rect width="665" height="254" fill="white"/>
</clipPath>
</defs>
</svg>
